<svg width="29" height="29" fill="none" xmlns="http://www.w3.org/2000/svg"><path fill-rule="evenodd" clip-rule="evenodd" d="M14.526.942c-3.709 0-4.174.017-5.63.083-1.454.066-2.447.297-3.315.634a6.687 6.687 0 00-2.42 1.575 6.704 6.704 0 00-1.575 2.419c-.339.868-.57 1.86-.635 3.314C.886 10.424.87 10.89.87 14.598c0 3.709.017 4.173.083 5.63.067 1.453.297 2.445.634 3.314.35.898.816 1.66 1.575 2.419a6.687 6.687 0 002.418 1.576c.87.338 1.862.568 3.315.634 1.457.067 1.922.083 5.63.083 3.71 0 4.173-.016 5.63-.083 1.454-.066 2.447-.296 3.316-.634a6.682 6.682 0 002.417-1.576 6.703 6.703 0 001.576-2.419c.336-.869.566-1.861.635-3.314.065-1.457.082-1.921.082-5.63 0-3.709-.017-4.174-.082-5.63-.069-1.454-.299-2.447-.635-3.315a6.702 6.702 0 00-1.576-2.419 6.674 6.674 0 00-2.418-1.575c-.87-.337-1.863-.568-3.317-.634-1.457-.066-1.92-.083-5.63-.083h.004zM13.3 3.408h1.225c3.646 0 4.078.013 5.518.078 1.331.061 2.054.284 2.535.47a4.223 4.223 0 011.57 1.022c.477.478.773.933 1.021 1.57.187.481.41 1.204.47 2.535.066 1.44.08 1.872.08 5.516 0 3.645-.014 4.077-.08 5.517-.06 1.331-.283 2.054-.47 2.535a4.224 4.224 0 01-1.021 1.568 4.224 4.224 0 01-1.57 1.022c-.48.187-1.204.41-2.535.47-1.44.066-1.872.08-5.518.08-3.647 0-4.079-.014-5.518-.08-1.332-.061-2.054-.284-2.536-.47a4.23 4.23 0 01-1.57-1.022 4.233 4.233 0 01-1.022-1.57c-.187-.48-.41-1.203-.47-2.534-.066-1.44-.08-1.872-.08-5.519 0-3.647.014-4.077.08-5.516.06-1.332.283-2.054.47-2.536A4.231 4.231 0 014.9 4.974a4.238 4.238 0 011.57-1.022c.481-.188 1.204-.41 2.536-.47 1.26-.058 1.748-.075 4.293-.078v.004zm8.514 2.274a1.638 1.638 0 10-.001 3.278 1.638 1.638 0 000-3.278zm-7.29 1.9a7.013 7.013 0 10.002 14.026 7.013 7.013 0 00-.001-14.026zm-.001 2.473a4.552 4.552 0 110 9.104 4.552 4.552 0 010-9.104z" fill="#656565"/></svg>