<svg width="27" height="27" fill="none" xmlns="http://www.w3.org/2000/svg"><g clip-path="url(#clip0)" fill="#656565"><path d="M5.311 14.49c-.69 1.357.093 2.004 1.88 3.112 1.519.938 3.617 1.28 4.965 1.418l-5.312 5.11c-1.545 1.481.943 3.858 2.488 2.408l4.181-4.033c1.601 1.54 3.136 3.016 4.182 4.039 1.546 1.456 4.033-.901 2.504-2.409-.114-.109-5.666-5.434-5.328-5.108 1.365-.137 3.432-.5 4.932-1.419v-.001c1.786-1.113 2.569-1.76 1.89-3.115-.411-.77-1.518-1.413-2.992-.3 0 0-1.99 1.524-5.2 1.524s-5.2-1.524-5.2-1.524c-1.472-1.119-2.584-.47-2.99.3z"/><path d="M13.498 13.66c3.913 0 7.108-3.058 7.108-6.822 0-3.78-3.195-6.838-7.108-6.838S6.39 3.058 6.39 6.838c0 3.764 3.195 6.822 7.109 6.822zm0-10.196c1.923 0 3.491 1.509 3.491 3.374 0 1.85-1.568 3.358-3.49 3.358-1.923 0-3.491-1.509-3.491-3.358-.001-1.867 1.567-3.374 3.49-3.374z"/></g><defs><clipPath id="clip0"><path fill="#fff" d="M0 0h27v27H0z"/></clipPath></defs></svg>