<svg width="27" height="27" fill="none" xmlns="http://www.w3.org/2000/svg"><g clip-path="url(#clip0)"><path d="M13.867 0C6.465.001 2.53 4.743 2.53 9.914c0 2.397 1.34 5.388 3.485 6.337.612.275.532-.061 1.058-2.075a.478.478 0 00-.115-.469c-3.066-3.547-.598-10.84 6.47-10.84 10.23 0 8.318 14.155 1.78 14.155-1.685 0-2.94-1.323-2.544-2.96.482-1.95 1.425-4.045 1.425-5.45 0-3.542-5.277-3.016-5.277 1.676 0 1.45.513 2.429.513 2.429s-1.697 6.858-2.012 8.14c-.534 2.168.072 5.68.125 5.982.032.167.219.22.324.082.167-.22 2.22-3.146 2.794-5.262.21-.771 1.068-3.899 1.068-3.899.566 1.022 2.197 1.877 3.935 1.877 5.17 0 8.908-4.545 8.908-10.185C24.45 4.045 19.823 0 13.867 0z" fill="#656565"/></g><defs><clipPath id="clip0"><path fill="#fff" d="M0 0h27v27H0z"/></clipPath></defs></svg>