<svg width="27" height="27" fill="none" xmlns="http://www.w3.org/2000/svg"><g clip-path="url(#clip0)"><path d="M27 5.128a11.54 11.54 0 01-3.19.874 5.504 5.504 0 002.436-3.059 11.062 11.062 0 01-3.51 1.34 5.534 5.534 0 00-9.575 3.785c0 .439.037.86.128 1.262C8.687 9.106 4.615 6.9 1.88 3.54a5.573 5.573 0 00-.757 2.798 5.54 5.54 0 002.459 4.6 5.467 5.467 0 01-2.501-.681v.06a5.56 5.56 0 004.435 5.44c-.45.122-.942.181-1.451.181-.355 0-.713-.02-1.048-.094.717 2.192 2.752 3.804 5.172 3.856a11.122 11.122 0 01-6.863 2.36c-.454 0-.89-.02-1.325-.075a15.583 15.583 0 008.492 2.484c10.185 0 15.754-8.438 15.754-15.751 0-.245-.008-.481-.02-.716A11.042 11.042 0 0027 5.128z" fill="#656565"/></g><defs><clipPath id="clip0"><path fill="#fff" d="M0 0h27v27H0z"/></clipPath></defs></svg>