<svg width="28" height="15" fill="none" xmlns="http://www.w3.org/2000/svg"><path fill-rule="evenodd" clip-rule="evenodd" d="M15.373 14.937s.506-.052.764-.313c.237-.24.229-.691.229-.691s-.032-2.108 1.01-2.419c1.028-.306 2.347 2.038 3.746 2.94 1.058.681 1.86.532 1.86.532l3.74-.049s1.956-.113 1.028-1.557c-.076-.118-.54-1.069-2.78-3.02-2.345-2.044-2.03-1.714.793-5.249 1.72-2.153 2.408-3.467 2.193-4.029-.204-.537-1.47-.395-1.47-.395l-4.21.025s-.311-.04-.543.09c-.226.127-.373.424-.373.424s-.665 1.666-1.554 3.083c-1.875 2.988-2.624 3.146-2.93 2.961-.714-.433-.536-1.738-.536-2.666 0-2.897.468-4.104-.91-4.417-.458-.104-.795-.172-1.966-.184-1.502-.014-2.773.005-3.493.336-.48.22-.85.711-.624.74.278.034.908.159 1.243.586.431.551.416 1.788.416 1.788s.248 3.41-.58 3.834c-.566.29-1.344-.302-3.016-3.014-.856-1.39-1.503-2.925-1.503-2.925s-.124-.286-.348-.44C5.29.72 4.913.662 4.913.662l-4 .024S.312.703.09.948c-.196.218-.015.67-.015.67s3.132 6.88 6.679 10.349c3.253 3.179 6.945 2.97 6.945 2.97h1.673z" fill="#656565"/></svg>