<svg width="27" height="27" fill="none" xmlns="http://www.w3.org/2000/svg"><path fill-rule="evenodd" clip-rule="evenodd" d="M0 13.5C0 6.044 6.044 0 13.5 0S27 6.044 27 13.5 20.956 27 13.5 27 0 20.956 0 13.5z" fill="url(#paint0_linear)"/><mask id="a" maskUnits="userSpaceOnUse" x="0" y="0" width="27" height="27"><path fill-rule="evenodd" clip-rule="evenodd" d="M0 13.5C0 6.044 6.044 0 13.5 0S27 6.044 27 13.5 20.956 27 13.5 27 0 20.956 0 13.5z" fill="#fff"/></mask><g mask="url(#a)"><path fill-rule="evenodd" clip-rule="evenodd" d="M13.5 6.3c-1.955 0-2.2.008-2.968.043-.767.035-1.29.157-1.748.335-.473.184-.875.43-1.275.83-.4.4-.647.802-.831 1.275-.179.458-.3.982-.335 1.748-.034.768-.043 1.013-.043 2.969 0 1.955.009 2.2.043 2.968.036.767.157 1.29.335 1.747.184.474.43.876.83 1.276.4.4.802.647 1.275.83.458.179.982.3 1.748.335.768.035 1.013.044 2.969.044 1.955 0 2.2-.009 2.968-.043.766-.036 1.29-.157 1.748-.335.474-.184.875-.43 1.275-.831.4-.4.646-.802.83-1.275.178-.458.3-.982.335-1.748.035-.768.044-1.013.044-2.968 0-1.956-.01-2.2-.044-2.969-.036-.766-.157-1.29-.334-1.747a3.534 3.534 0 00-.831-1.276c-.4-.4-.801-.646-1.275-.83-.46-.178-.983-.3-1.75-.335-.767-.035-1.012-.043-2.968-.043h.003zm-.645 1.297h.646c1.922 0 2.15.007 2.909.041.702.032 1.083.15 1.337.248.336.13.575.286.827.539.252.252.408.492.539.828.099.253.216.634.248 1.336.034.759.042.987.042 2.909 0 1.921-.008 2.15-.042 2.908-.032.702-.15 1.083-.248 1.337-.13.336-.287.575-.539.827a2.226 2.226 0 01-.827.538c-.254.1-.635.216-1.337.248-.76.035-.987.042-2.91.042-1.922 0-2.15-.007-2.909-.042-.702-.032-1.083-.15-1.337-.248a2.23 2.23 0 01-.828-.538 2.231 2.231 0 01-.539-.828c-.098-.254-.216-.634-.248-1.337-.034-.759-.041-.987-.041-2.91 0-1.922.007-2.149.041-2.908.032-.702.15-1.083.248-1.337a2.23 2.23 0 01.54-.828c.251-.252.491-.408.827-.538.254-.1.635-.216 1.337-.249.664-.03.922-.039 2.264-.04v.002zm4.489 1.196a.864.864 0 100 1.728.864.864 0 000-1.729zM13.5 9.802a3.698 3.698 0 100 7.395 3.698 3.698 0 000-7.395zm0 1.298a2.4 2.4 0 110 4.8 2.4 2.4 0 010-4.8z" fill="#fff"/></g><defs><linearGradient id="paint0_linear" x1="22.327" y1="1.558" x2="7.788" y2="23.885" gradientUnits="userSpaceOnUse"><stop stop-color="#536DE8"/><stop offset=".367" stop-color="#A84CA7"/><stop offset=".751" stop-color="#FC3436"/><stop offset="1" stop-color="#FFA10D"/></linearGradient></defs></svg>