<svg width="22" height="22" fill="none" xmlns="http://www.w3.org/2000/svg"><path fill-rule="evenodd" clip-rule="evenodd" d="M10.58.3C7.73.3 7.371.312 6.252.363 5.134.414 4.37.591 3.703.851a5.14 5.14 0 00-1.86 1.21 5.154 5.154 0 00-1.211 1.86C.372 4.59.195 5.352.144 6.47.094 7.59.081 7.947.081 10.8c0 2.85.013 3.207.063 4.327.052 1.118.229 1.88.488 2.548.269.69.627 1.276 1.211 1.86.583.584 1.17.943 1.86 1.212.667.26 1.43.436 2.548.487 1.12.051 1.477.064 4.328.064s3.208-.013 4.328-.064c1.118-.05 1.881-.228 2.55-.487a5.136 5.136 0 001.858-1.212 5.153 5.153 0 001.212-1.86c.258-.667.435-1.43.487-2.548.05-1.12.064-1.476.064-4.328 0-2.85-.013-3.209-.064-4.329-.052-1.117-.23-1.88-.487-2.548a5.152 5.152 0 00-1.212-1.86 5.13 5.13 0 00-1.86-1.21c-.668-.26-1.432-.437-2.55-.488C13.786.313 13.43.3 10.578.3h.003zm-.942 1.895h.941c2.803 0 3.136.01 4.243.06 1.023.047 1.579.218 1.949.362.49.19.839.417 1.206.785.368.367.595.717.786 1.207.144.37.315.925.361 1.949.05 1.107.062 1.439.062 4.24 0 2.803-.011 3.135-.062 4.242-.046 1.023-.217 1.579-.361 1.949-.19.49-.418.838-.786 1.206a3.248 3.248 0 01-1.206.785c-.37.144-.926.315-1.95.361-1.106.05-1.439.062-4.242.062s-3.135-.011-4.242-.061c-1.024-.048-1.58-.219-1.95-.362a3.25 3.25 0 01-1.207-.786 3.254 3.254 0 01-.785-1.206c-.144-.37-.315-.925-.362-1.95-.05-1.106-.06-1.438-.06-4.242 0-2.803.01-3.134.06-4.24.047-1.024.218-1.58.362-1.95.19-.49.418-.84.785-1.207a3.258 3.258 0 011.208-.786c.37-.144.925-.315 1.95-.362.968-.044 1.343-.057 3.3-.059v.003zm6.545 1.749a1.26 1.26 0 100 2.52 1.26 1.26 0 000-2.52zm-5.604 1.46a5.392 5.392 0 100 10.784 5.392 5.392 0 000-10.783zm-.001 1.9a3.5 3.5 0 110 7 3.5 3.5 0 010-7z" fill="#fff"/></svg>