<svg width="105" height="38" fill="none" xmlns="http://www.w3.org/2000/svg"><path fill="#F5EEE4" d="M0 0h104.82v37.628H0z"/><path d="M29.892 12.931v12.154h2.502v-8.137h.034l5.055 8.137h2.673V12.93h-2.502v8.154h-.034l-5.073-8.154h-2.655zm16.021 0v12.154h9.226v-2.247h-6.554v-2.979h5.89v-2.077h-5.89v-2.604h6.418v-2.247h-9.09zM71.93 25.085l3.268-12.154h-2.621l-1.992 8.375h-.034l-2.076-8.375h-2.503l-2.11 8.273h-.034l-1.924-8.273h-2.672l3.217 12.154h2.706l2.026-8.273h.034l2.06 8.273h2.655z" fill="#323232"/></svg>