<svg width="100" height="36" fill="none" xmlns="http://www.w3.org/2000/svg"><path fill="#F90" d="M.883 0h98.65v35.397H.883z"/><path d="M27.877 19.802h-2.435c-.01.705.117 1.314.384 1.826s.625.934 1.074 1.265c.46.331.982.571 1.57.72a7.09 7.09 0 001.842.24c.78 0 1.463-.09 2.05-.271.599-.182 1.095-.433 1.49-.753.406-.331.71-.72.914-1.169a3.49 3.49 0 00.304-1.457c0-.64-.139-1.164-.416-1.57a3.289 3.289 0 00-.962-.992 4.043 4.043 0 00-1.137-.529 9.103 9.103 0 00-.881-.24c-.716-.181-1.298-.33-1.746-.448a6.856 6.856 0 01-1.042-.352c-.245-.118-.41-.246-.496-.385-.086-.139-.128-.32-.128-.544 0-.246.053-.449.16-.609.107-.16.24-.293.4-.4.171-.107.358-.182.561-.224a2.93 2.93 0 01.609-.064c.31 0 .592.026.849.08.267.053.502.144.705.272.203.128.363.304.48.528.128.225.203.507.225.85h2.435c0-.663-.129-1.223-.385-1.682a3.188 3.188 0 00-1.01-1.153 4.18 4.18 0 00-1.473-.64 6.916 6.916 0 00-1.714-.209c-.513 0-1.025.07-1.538.208a4.292 4.292 0 00-1.378.64 3.468 3.468 0 00-.993 1.09c-.246.427-.369.934-.369 1.52 0 .524.097.972.289 1.346.203.363.464.667.785.913.32.245.683.448 1.09.608.405.15.822.278 1.249.385.416.117.828.224 1.233.32.406.096.77.208 1.09.336.32.128.576.288.769.48.203.193.304.444.304.753 0 .288-.075.529-.224.72-.15.182-.337.326-.56.433a2.7 2.7 0 01-.722.224 5.84 5.84 0 01-.72.048c-.332 0-.652-.037-.962-.112a2.728 2.728 0 01-.817-.368 1.933 1.933 0 01-.545-.657c-.139-.267-.208-.592-.208-.977zm14.777-.624l1.49-4.195h.032l1.442 4.195h-2.964zm.24-7.014L38.57 23.598h2.53l.897-2.546h4.278l.865 2.546h2.611l-4.277-11.434h-2.58zm11.047 0v11.434h8.09v-2.114h-5.574v-9.32H53.94zm12.701 0v11.434h8.683v-2.114h-6.168v-2.802H74.7v-1.954h-5.543v-2.45h6.04v-2.114h-8.555z" fill="#fff"/></svg>