<svg width="36" height="34" fill="none" xmlns="http://www.w3.org/2000/svg"><path d="M16.637.701c.386-.935 1.7-.935 2.087 0l4.072 9.866c.162.395.53.664.953.698l10.57.854c1.002.081 1.408 1.341.645 2l-8.054 6.952a1.144 1.144 0 00-.364 1.129l2.46 10.393c.234.986-.83 1.764-1.688 1.236l-9.049-5.57a1.123 1.123 0 00-1.178 0l-9.05 5.57c-.857.529-1.92-.25-1.688-1.236L8.813 22.2a1.144 1.144 0 00-.363-1.13L.397 14.12c-.764-.66-.358-1.92.644-2l10.57-.855c.423-.034.79-.303.953-.698L16.637.701z" fill="#F8CD02"/></svg>