<svg width="27" height="27" fill="none" xmlns="http://www.w3.org/2000/svg"><rect width="27" height="27" rx="13.5" fill="#5B80B8"/><path fill-rule="evenodd" clip-rule="evenodd" d="M13.796 16.942s.25-.024.379-.145c.117-.11.113-.32.113-.32s-.015-.975.501-1.12c.51-.141 1.164.944 1.858 1.361.524.316.922.247.922.247l1.855-.023s.97-.052.51-.72c-.038-.055-.268-.495-1.379-1.399-1.163-.946-1.007-.793.393-2.429.853-.996 1.194-1.605 1.088-1.865-.101-.249-.729-.182-.729-.182l-2.088.01s-.155-.018-.27.042c-.111.06-.184.197-.184.197s-.33.77-.77 1.427c-.93 1.383-1.302 1.456-1.454 1.37-.354-.2-.266-.804-.266-1.234 0-1.34.232-1.9-.451-2.044-.227-.048-.394-.08-.975-.085-.745-.007-1.375.002-1.732.155-.238.102-.422.33-.31.342.138.017.45.074.616.272.214.255.207.828.207.828s.123 1.578-.287 1.774c-.282.135-.667-.14-1.497-1.395a11.092 11.092 0 01-.745-1.354s-.061-.132-.172-.204a.929.929 0 00-.32-.113l-1.984.011s-.299.008-.408.121c-.097.1-.007.31-.007.31s1.553 3.185 3.312 4.79c1.613 1.472 3.444 1.375 3.444 1.375h.83z" fill="#fff"/></svg>