<svg width="206" height="47" viewBox="0 0 206 47" fill="none" xmlns="http://www.w3.org/2000/svg">
<g clip-path="url(#clip0)">
<path d="M2.43198 5.6367C2.43198 3.86999 2.23853 2.69219 1.87926 2.10329C1.49235 1.51438 0.884357 1.14983 0 1.00961V0.673096H8.95412V1.00961C8.12503 1.09374 7.51704 1.40221 7.13013 1.96307C6.74322 2.52393 6.52214 3.64565 6.52214 5.38431V10.0114L9.75557 7.4034C11.469 5.97321 12.685 4.8515 13.4035 4.06629C14.2879 3.11283 14.7577 2.38372 14.7577 1.93503C14.7577 1.59851 14.6748 1.37417 14.509 1.262C14.3432 1.14983 14.0944 1.0657 13.7352 1.00961V0.673096H22.7446V1.00961C21.4733 1.00961 20.202 1.40221 18.9584 2.18741C18.6268 2.38372 17.5766 3.225 15.7526 4.73932L12.9614 7.09493C14.7853 8.80555 16.3882 10.7966 17.7701 13.04C19.069 15.0872 20.2297 17.3867 21.2246 19.9386L21.9431 21.6773C22.4406 22.9112 22.7722 23.6683 22.9104 23.9207C23.4078 24.7339 24.0435 25.1826 24.7896 25.2948V25.6313H16.5541V25.2948C17.4384 25.1546 17.853 24.6779 17.853 23.8085C17.853 22.8831 17.5213 21.5931 16.8857 19.9666C16.4159 18.8169 15.8079 17.611 15.117 16.3491C14.3984 15.0872 13.6523 13.9374 12.8508 12.8718C12.0494 11.8061 11.1374 10.6844 10.0872 9.50663L6.54977 12.395V20.6677C6.54977 22.1259 6.66032 23.1355 6.85377 23.6964C7.21304 24.6498 7.90394 25.1826 8.98175 25.2948V25.6313H0V25.2948C1.05017 25.1265 1.74108 24.5937 2.10035 23.7524C2.32144 23.1916 2.43198 22.2662 2.43198 20.9481V5.6367Z" fill="#FF3D00"/>
<path d="M37.0877 11.4415C37.2535 10.9086 37.447 10.3758 37.6128 9.81497C37.7786 9.25411 37.8615 8.83347 37.8615 8.525C37.8615 8.16044 37.751 7.88001 37.5575 7.68371C37.3641 7.48741 37.0048 7.34719 36.5073 7.29111V6.95459H42.2004V7.29111C41.4542 7.40328 40.8462 7.79588 40.404 8.55304C40.2106 8.88955 39.9066 9.59063 39.5473 10.7123L33.7714 27.5942C32.9146 30.1461 31.9197 31.8287 30.8696 32.67C29.9576 33.3991 28.7692 33.7637 27.3598 33.7637C26.6965 33.7637 26.0332 33.6515 25.4252 33.4271C24.8172 33.2028 24.2092 32.8663 23.6842 32.3896L25.8121 27.2577L26.1161 27.454C26.0332 27.7625 26.0056 28.0709 26.0056 28.3514C26.0056 29.1366 26.1991 29.8096 26.6136 30.3705C27.0005 30.9313 27.5532 31.2118 28.2441 31.2118C29.3496 31.2118 30.2063 30.6789 30.8143 29.5853C31.3394 28.6879 31.5881 27.5942 31.5881 26.3603C31.5881 25.5471 31.3947 24.5656 30.9801 23.4438C30.8419 23.0232 30.455 22.0697 29.8194 20.6115L25.4805 10.516C25.0383 9.45041 24.7067 8.74934 24.4856 8.44087C23.9882 7.71175 23.4354 7.34719 22.7998 7.34719V7.01068H30.2892V7.34719C29.8747 7.40328 29.5707 7.51545 29.3772 7.71175C29.1838 7.90805 29.1009 8.16044 29.1009 8.49695C29.1009 8.77738 29.1838 9.1139 29.3496 9.53454C29.5154 9.95519 29.6259 10.2637 29.7088 10.488L33.9095 20.948L37.0877 11.4415Z" fill="#FF3D00"/>
<path d="M59.0036 22.6586C59.3905 23.1915 59.7498 23.7243 60.1644 24.2571C60.6894 24.874 61.2145 25.2106 61.7673 25.2666V25.6032H54.0568V25.2666C54.8306 25.1545 55.2175 24.874 55.2175 24.3693C55.2175 24.0047 55.024 23.4719 54.6095 22.8269C54.2226 22.2941 53.9739 21.9015 53.7804 21.6211L50.9892 17.3585L48.2808 20.7517C46.7885 22.6586 46.0423 23.8925 46.0423 24.4534C46.0423 24.9021 46.4292 25.1825 47.1477 25.2947V25.6312H41.3994V25.2947C41.8416 25.1825 42.2561 25.0143 42.6154 24.7338C42.9747 24.4534 43.555 23.8084 44.3012 22.7989L49.8837 15.8442L46.7608 11.2732C45.5725 9.5065 44.8539 8.525 44.6328 8.27261C43.9972 7.65566 43.4445 7.31915 42.9194 7.31915V6.98263H50.9339V7.31915C50.1048 7.40328 49.6903 7.71175 49.6903 8.30065C49.6903 8.60912 49.8284 9.00173 50.0772 9.47846C50.2706 9.84301 50.547 10.2637 50.9062 10.7684L52.3157 12.8717L53.9739 10.6282C54.499 9.8991 54.8306 9.45041 54.9135 9.25411C55.1899 8.74934 55.3557 8.3287 55.3557 8.02022C55.3557 7.54349 54.9964 7.29111 54.2502 7.29111V6.95459H60.5236V7.29111C59.6393 7.37523 58.7549 7.85196 57.8429 8.77738C57.6218 9.00173 56.9309 9.84301 55.7426 11.2732L53.2553 14.3018L59.0036 22.6586Z" fill="#FF3D00"/>
<path d="M77.63 14.8067H68.814V20.9481C68.814 22.7148 68.9799 23.8926 69.3391 24.4534C69.6984 25.0143 70.2511 25.2947 71.0526 25.2947V25.6312H62.7617V25.2947C63.729 25.2947 64.3923 24.846 64.6963 23.9206C64.8897 23.3317 65.0002 22.3502 65.0002 20.9761V11.6378C65.0002 9.87109 64.8344 8.72133 64.4752 8.16047C64.1159 7.59961 63.5632 7.31918 62.7617 7.31918V6.98267H71.0526V7.31918C70.0853 7.31918 69.422 7.76787 69.118 8.66524C68.9246 9.25415 68.814 10.2076 68.814 11.6098V13.1241H77.63V11.6098C77.63 9.87109 77.4642 8.69329 77.1049 8.16047C76.7456 7.59961 76.1929 7.34722 75.3914 7.34722V7.01071H83.6823V7.34722C82.715 7.34722 82.0518 7.79591 81.7478 8.72133C81.5543 9.31023 81.4438 10.2917 81.4438 11.6658V21.0041C81.4438 22.7709 81.6096 23.9206 81.9689 24.4815C82.3281 25.0423 82.8808 25.3228 83.6823 25.3228V25.6593H75.3914V25.3228C76.3587 25.3228 76.9943 24.8741 77.326 23.9487C77.5194 23.3598 77.63 22.3783 77.63 20.9761V14.8067Z" fill="#FF3D00"/>
<path d="M100.402 11.5256L91.5865 19.3215V20.9761C91.5865 22.7428 91.7523 23.8925 92.1116 24.4534C92.4709 25.0143 93.0236 25.2947 93.825 25.2947V25.6312H85.5342V25.2947C86.5014 25.2106 87.1371 24.7338 87.4687 23.8084C87.6622 23.2475 87.7727 22.3221 87.7727 20.9761V11.6378C87.7727 10.2637 87.6898 9.33824 87.524 8.83347C87.1924 7.90805 86.5291 7.40328 85.5342 7.31915V6.98263H93.825V7.31915C92.8578 7.31915 92.1945 7.76784 91.8905 8.69325C91.697 9.28216 91.5865 10.2637 91.5865 11.6378V17.1903L100.402 9.39433C100.347 8.97368 100.264 8.63717 100.154 8.44087C99.7668 7.76784 99.1312 7.37523 98.1639 7.29111V6.95459H106.455V7.29111C105.487 7.29111 104.824 7.73979 104.52 8.66521C104.327 9.25411 104.216 10.2356 104.216 11.6097V20.948C104.216 22.7147 104.382 23.8645 104.741 24.4254C105.101 24.9862 105.653 25.2666 106.455 25.2666V25.6032H98.1639V25.2666C99.1312 25.1825 99.7668 24.7058 100.098 23.7804C100.292 23.2195 100.402 22.2941 100.402 20.948V11.5256Z" fill="#FF3D00"/>
<path d="M130.332 25.9678C130.139 25.9117 129.89 25.8836 129.586 25.8836H129.089L124.584 26.108C122.401 26.108 120.466 25.8556 118.808 25.3789C116.874 24.818 115.16 23.9487 113.695 22.7148C112.093 21.3968 110.904 19.7983 110.103 17.9475C109.301 16.0967 108.887 14.1056 108.887 11.9743C108.887 10.2637 109.191 8.63723 109.826 7.09487C110.434 5.55251 111.374 4.26253 112.618 3.22494C113.861 2.18735 115.243 1.45823 116.846 1.00955C118.449 0.560859 120.107 0.336515 121.903 0.336515L126.021 0.673031L127.209 0.785203C127.569 0.785203 127.873 0.729117 128.094 0.616945C128.315 0.504773 128.508 0.308473 128.647 0L130.36 7.12291L130.056 7.23508C129.393 5.66468 128.315 4.45883 126.823 3.5895C125.33 2.72017 123.7 2.29952 121.903 2.29952C120.577 2.29952 119.444 2.49582 118.449 2.86038C117.454 3.22494 116.57 3.89797 115.796 4.82339C115.022 5.74881 114.414 6.81444 113.999 8.02029C113.585 9.22613 113.391 10.46 113.391 11.722C113.391 15.1152 114.414 18.0036 116.459 20.3872C118.587 22.9111 121.323 24.145 124.639 24.145C126.519 24.145 128.177 23.6122 129.559 22.5746C130.94 21.537 132.046 20.1068 132.903 18.256L133.289 18.3962L130.332 25.9678Z" fill="#FF3D00"/>
<path d="M148.932 11.5256L140.116 19.3215V20.9761C140.116 22.7428 140.282 23.8925 140.641 24.4534C141 25.0143 141.553 25.2947 142.354 25.2947V25.6312H134.063V25.2947C135.031 25.2106 135.694 24.7338 135.998 23.8084C136.191 23.2475 136.302 22.3221 136.302 20.9761V11.6378C136.302 10.2637 136.219 9.33824 136.053 8.83347C135.722 7.90805 135.058 7.40328 134.063 7.31915V6.98263H142.354V7.31915C141.387 7.31915 140.724 7.76784 140.42 8.69325C140.226 9.28216 140.116 10.2637 140.116 11.6378V17.1903L148.932 9.39433C148.876 8.97368 148.794 8.63717 148.683 8.44087C148.296 7.76784 147.66 7.37523 146.693 7.29111V6.95459H154.984V7.29111C154.017 7.29111 153.354 7.73979 153.05 8.66521C152.856 9.25411 152.746 10.2356 152.746 11.6097V20.948C152.746 22.7147 152.911 23.8645 153.271 24.4254C153.63 24.9862 154.183 25.2666 154.984 25.2666V25.6032H146.693V25.2666C147.66 25.1825 148.296 24.7058 148.628 23.7804C148.821 23.2195 148.932 22.2941 148.932 20.948V11.5256Z" fill="#FF3D00"/>
<path d="M166.95 21.0042C166.95 22.4063 167.061 23.3598 167.254 23.8926C167.613 24.818 168.304 25.2947 169.382 25.2947V25.6313H160.759V25.2947C161.81 25.2947 162.501 24.818 162.832 23.8646C163.053 23.2757 163.164 22.3222 163.164 21.0042V8.80548C160.981 8.80548 159.35 9.22613 158.245 10.0955C157.305 10.8246 156.448 12.1706 155.674 14.1617L155.343 14.0495L157.167 6.59009C157.305 6.78639 157.498 6.9266 157.719 6.98269C157.941 7.03878 158.245 7.06682 158.659 7.06682H159.378H170.764H171.482C171.842 7.06682 172.146 7.03878 172.394 6.98269C172.643 6.9266 172.836 6.78639 172.975 6.59009L174.799 14.0495L174.467 14.1617C173.721 12.2267 172.864 10.8807 171.897 10.1515C170.791 9.28221 169.133 8.83353 166.978 8.83353V21.0042H166.95Z" fill="#FF3D00"/>
<path d="M189.943 11.5256L181.128 19.3215V20.9761C181.128 22.7428 181.293 23.8925 181.653 24.4534C182.012 25.0143 182.565 25.2947 183.366 25.2947V25.6312H175.075V25.2947C176.042 25.2106 176.706 24.7338 177.01 23.8084C177.203 23.2475 177.314 22.3221 177.314 20.9761V11.6378C177.314 10.2637 177.231 9.33824 177.065 8.83347C176.733 7.90805 176.07 7.40328 175.075 7.31915V6.98263H183.366V7.31915C182.399 7.31915 181.736 7.76784 181.432 8.69325C181.238 9.28216 181.128 10.2637 181.128 11.6378V17.1903L189.943 9.39433C189.888 8.97368 189.805 8.63717 189.695 8.44087C189.308 7.76784 188.672 7.37523 187.705 7.29111V6.95459H195.996V7.29111C195.029 7.29111 194.365 7.73979 194.061 8.66521C193.868 9.25411 193.757 10.2356 193.757 11.6097V20.948C193.757 22.7147 193.923 23.8645 194.282 24.4254C194.642 24.9862 195.194 25.2666 195.996 25.2666V25.6032H187.705V25.2666C188.672 25.1825 189.308 24.7058 189.639 23.7804C189.833 23.2195 189.943 22.2941 189.943 20.948V11.5256Z" fill="#FF3D00"/>
<path d="M201.799 5.97312V4.99162H202.794C203.181 4.99162 203.706 5.0477 203.706 5.4403C203.706 6.05725 202.877 5.94508 202.435 5.94508H201.799V5.97312ZM203.043 6.53398C203.706 6.50594 204.231 6.22551 204.231 5.49639C204.231 4.68314 203.568 4.48684 202.877 4.48684H201.246V8.30068H201.772V6.53398H202.407L203.513 8.30068H204.148L203.043 6.53398ZM202.545 9.87109C204.48 9.87109 205.972 8.32873 205.972 6.36572C205.972 4.40271 204.452 2.86035 202.545 2.86035C200.611 2.86035 199.091 4.40271 199.091 6.36572C199.091 8.32873 200.611 9.87109 202.545 9.87109ZM202.545 9.33827C200.97 9.33827 199.616 8.02026 199.616 6.39376C199.616 4.73923 200.97 3.44925 202.545 3.44925C204.121 3.44925 205.447 4.73923 205.447 6.39376C205.475 8.02026 204.121 9.33827 202.545 9.33827Z" fill="#FF3D00"/>
<path d="M6.63288 44.9248C6.57761 44.8407 6.54997 44.8127 6.46706 44.7846C6.41179 44.7566 6.32888 44.7566 6.24597 44.7566H6.13543L4.61544 44.8407C3.37181 44.8407 2.32164 44.5322 1.52019 43.8872C0.608194 43.1862 0.166016 42.2047 0.166016 40.9708C0.166016 39.8491 0.552922 38.9797 1.2991 38.3347C2.01764 37.7178 2.92963 37.4093 4.03508 37.4093C4.2838 37.4093 4.53253 37.4374 4.78126 37.4654C5.02998 37.4935 5.27871 37.5495 5.55507 37.5776C5.61034 37.6056 5.66561 37.6056 5.72089 37.6056C5.77616 37.6056 5.85907 37.6056 5.94197 37.6056C6.1907 37.6056 6.35652 37.5215 6.46706 37.3252L7.07506 40.3819L6.85397 40.438C6.66051 39.8491 6.35652 39.3443 5.96961 38.9797C5.52743 38.531 5.02998 38.3347 4.44962 38.3347C3.81399 38.3347 3.31654 38.5871 2.95727 39.0919C2.65327 39.5406 2.48745 40.1014 2.48745 40.7745C2.48745 41.1671 2.54273 41.5316 2.65327 41.8962C2.76382 42.2608 2.92963 42.5973 3.15072 42.9057C3.37181 43.2142 3.67581 43.4666 4.03508 43.6629C4.39435 43.8592 4.78126 43.9433 5.16816 43.9433C5.63798 43.9433 6.08016 43.8031 6.43943 43.5507C6.82633 43.2983 7.07506 42.9338 7.26851 42.4851L7.51724 42.5692L6.63288 44.9248Z" fill="#FF3D00"/>
<path d="M11.3585 43.2984C11.3585 43.6349 11.3585 43.8592 11.3862 43.9434C11.4414 44.2518 11.6072 44.4201 11.8836 44.4201V44.7005H8.81599V44.4201C9.00944 44.4201 9.14762 44.364 9.23053 44.2238C9.31344 44.0836 9.36871 43.7751 9.36871 43.2984V40.0734C8.95417 40.0734 8.56726 40.2136 8.26326 40.466C7.95927 40.7465 7.73818 41.111 7.6 41.5878L7.37891 41.5317L7.90399 39.2041C7.95927 39.2882 8.01454 39.3163 8.09745 39.3443C8.18035 39.3724 8.2909 39.3724 8.42908 39.3724H8.56726H8.70544H11.8836H12.16C12.3258 39.3724 12.464 39.3724 12.5745 39.3443C12.6851 39.3163 12.768 39.2602 12.8232 39.2041L13.3207 41.5317L13.0996 41.5878C12.9061 41.083 12.6851 40.7184 12.4363 40.466C12.16 40.1856 11.7731 40.0454 11.3585 40.0454V43.2984Z" fill="#FF3D00"/>
<path d="M14.011 40.5221C14.011 39.9332 13.8176 39.6527 13.4307 39.6527V39.3723H16.4983V39.6527C16.139 39.6527 15.9732 39.9332 15.9732 40.5221V41.8681L17.4103 40.5221C17.4103 40.2136 17.3826 39.9893 17.2997 39.849C17.2168 39.7088 17.1063 39.6527 16.9128 39.6527V39.3723H19.9528V39.6527C19.5659 39.6527 19.3724 39.9332 19.3724 40.5221V43.5227C19.3724 44.1116 19.5659 44.392 19.9528 44.392V44.6724H16.9128V44.392C17.1063 44.392 17.2445 44.3359 17.2997 44.1957C17.3826 44.0555 17.4103 43.8311 17.4103 43.5507V41.4475L15.9732 42.7936V43.5788C15.9732 44.1677 16.139 44.4481 16.4983 44.4481V44.7285H13.4583V44.4481C13.8452 44.4481 14.0387 44.1677 14.0387 43.5788V40.5221H14.011Z" fill="#FF3D00"/>
<path d="M22.4411 40.3819C22.1094 40.6904 21.8331 41.1391 21.612 41.728C21.3909 42.3169 21.2803 42.9338 21.2803 43.6068C21.2803 43.8031 21.3633 43.9714 21.5567 44.1397C21.7778 44.336 22.0265 44.4201 22.3582 44.4201V44.7005H20.2578V44.5883C20.2578 43.9153 20.3131 43.3264 20.4513 42.7655C20.7 41.756 21.1422 40.8867 21.8054 40.1295C21.8607 40.0734 21.8883 40.0173 21.8883 39.9893C21.916 39.9332 21.916 39.9052 21.916 39.8491C21.916 39.7369 21.8331 39.6808 21.6673 39.6808H21.5843V39.4004H26.3101V39.6808C26.0614 39.6808 25.8956 39.793 25.8127 40.0173C25.7574 40.1575 25.7298 40.438 25.7298 40.8025V43.3545C25.7298 43.7471 25.7574 43.9994 25.8127 44.1397C25.8956 44.364 26.0614 44.4762 26.3101 44.4762V44.7566H23.2702V44.4762C23.436 44.4762 23.5742 44.4201 23.6571 44.2799C23.74 44.1397 23.7676 43.8312 23.7676 43.3825V40.8306C23.7676 40.5221 23.74 40.2978 23.7123 40.1856C23.6571 40.0734 23.5465 40.0173 23.3807 40.0173C23.1872 40.0173 23.0214 40.0454 22.8832 40.1015C22.7451 40.1295 22.6069 40.2417 22.4411 40.3819Z" fill="#FF3D00"/>
<path d="M29.7919 44.0555C30.0683 44.0555 30.2894 43.9713 30.4828 43.775C30.6763 43.5787 30.7592 43.3544 30.7592 43.0459C30.7592 42.6813 30.6486 42.3729 30.3999 42.1205C30.1236 41.8401 29.7643 41.6998 29.3221 41.6998V43.2983C29.3221 43.5787 29.3498 43.775 29.405 43.8872C29.4603 44.0274 29.5985 44.0555 29.7919 44.0555ZM26.752 44.6724V44.392C26.9454 44.392 27.0836 44.3078 27.1941 44.1676C27.277 44.0274 27.3323 43.7189 27.3323 43.2703V40.7183C27.3323 40.3538 27.3047 40.1014 27.2494 39.9612C27.1665 39.7368 27.0007 39.6247 26.752 39.6247V39.3442H29.9301V39.6247C29.6537 39.6247 29.4603 39.7368 29.3774 39.9612C29.3221 40.1014 29.2945 40.3538 29.2945 40.7183V41.0549C30.2894 41.0549 31.0632 41.1951 31.6436 41.4755C32.3621 41.812 32.7214 42.3448 32.7214 43.0459C32.7214 43.5507 32.445 43.9433 31.9199 44.2237C31.3948 44.5041 30.6763 44.6444 29.7367 44.6444H26.752V44.6724Z" fill="#FF3D00"/>
<path d="M39.022 42.2047V43.2983C39.022 43.6068 39.0773 43.8031 39.1602 43.9153C39.2431 44.0274 39.4089 44.0835 39.6577 44.0835C39.9616 44.0835 40.2104 43.9994 40.4038 43.8031C40.5973 43.6348 40.6802 43.3544 40.6802 43.0459C40.6802 42.7655 40.6249 42.5131 40.4867 42.3449C40.3762 42.1486 40.1827 42.0084 39.9617 41.9523L39.022 42.2047ZM40.0446 40.6342C40.0446 40.466 39.9893 40.2977 39.9064 40.1856C39.8235 40.0734 39.6853 39.9893 39.4918 39.9893C39.2984 39.9893 39.1878 40.0173 39.1326 40.1014C39.0497 40.2136 38.9944 40.4099 38.9944 40.7464V41.4755L39.4089 41.3634C39.6024 41.3073 39.7406 41.2232 39.8511 41.0829C39.9893 40.9708 40.0446 40.8305 40.0446 40.6342ZM42.0896 40.4379C42.0896 40.6623 41.9791 40.8586 41.7304 41.0829C41.5369 41.2512 41.2882 41.3914 40.9842 41.4755C41.5093 41.5597 41.9515 41.7279 42.3107 41.9803C42.6424 42.2327 42.8358 42.5692 42.8358 42.9338C42.8358 43.5227 42.5594 43.9433 41.9791 44.2518C41.454 44.5322 40.7907 44.6724 39.9893 44.6724H36.4795V44.392C36.7282 44.392 36.894 44.2798 36.9769 44.0555C37.0322 43.8872 37.0599 43.6348 37.0599 43.2983V40.7464C37.0599 40.3819 37.0322 40.1295 36.9769 39.9893C36.894 39.7649 36.7282 39.6527 36.4795 39.6527V39.3723H39.7406C40.4591 39.3723 40.9842 39.4004 41.2606 39.4845C41.8133 39.6527 42.0896 39.9612 42.0896 40.4379Z" fill="#FF3D00"/>
<path d="M49.9936 44.6724V44.392C50.2147 44.392 50.3528 44.2798 50.4358 44.0555C50.491 43.9152 50.491 43.6348 50.491 43.2142V42.2607L50.1594 41.9522C49.9659 42.1766 49.7725 42.5131 49.579 42.9337C49.3856 43.3824 49.275 43.7189 49.275 43.9713C49.275 44.2518 49.4132 44.392 49.7172 44.392V44.6724H46.2627V44.392C46.4838 44.392 46.6772 44.2518 46.8707 43.9713C46.8983 43.9433 47.0089 43.6909 47.2576 43.2422L47.6445 42.457C47.7827 42.1766 47.9761 41.8681 48.1972 41.5316C48.363 41.2792 48.5841 40.9707 48.8329 40.6623L48.6394 40.494C48.363 40.2416 48.0314 40.0453 47.6721 39.8771C47.3129 39.7088 46.9536 39.6247 46.622 39.6247V39.3442H49.6343V39.6247C49.5238 39.6247 49.4409 39.6527 49.3579 39.7088C49.275 39.7649 49.2474 39.821 49.2474 39.9331C49.2474 40.0173 49.3303 40.1575 49.5238 40.3818C49.6343 40.522 49.7449 40.6623 49.883 40.8025L50.5187 41.5035V40.494C50.5187 40.2136 50.491 40.0173 50.4634 39.9051C50.3805 39.7088 50.2423 39.6247 50.0212 39.6247V39.3442H52.9783V39.6247C52.7572 39.6247 52.619 39.7088 52.5361 39.9051C52.4808 40.0173 52.4808 40.2136 52.4808 40.494V41.5035L53.1165 40.8025C53.3099 40.6062 53.4481 40.4099 53.5863 40.2416C53.6968 40.0734 53.7521 39.9892 53.7521 39.9331C53.7521 39.849 53.6968 39.7649 53.6139 39.7088C53.531 39.6527 53.4481 39.6247 53.3376 39.6247V39.3442H56.3499V39.6247C55.9906 39.6247 55.659 39.7088 55.2997 39.849C54.9404 40.0173 54.6365 40.2136 54.3325 40.466L54.139 40.6342C54.4154 40.9988 54.6364 41.2792 54.7746 41.5035C54.9681 41.784 55.1615 42.1205 55.3274 42.429L55.7143 43.2142C55.9077 43.6348 56.0459 43.8872 56.0735 43.9433C56.267 44.2237 56.4604 44.3639 56.7092 44.3639V44.6444H53.3099V44.3639C53.5586 44.3639 53.6968 44.2237 53.6968 43.9433C53.6968 43.6909 53.5863 43.3263 53.3928 42.9057C53.1994 42.485 53.0059 42.1485 52.7848 41.8961L52.4532 42.2046V43.1581C52.4532 43.6909 52.4808 43.9994 52.5637 44.1396C52.6466 44.2798 52.7572 44.3359 52.9506 44.3359V44.6163H49.9936V44.6724Z" fill="#FF3D00"/>
<path d="M57.345 40.5221C57.345 39.9332 57.1516 39.6527 56.7646 39.6527V39.3723H59.8323V39.6527C59.473 39.6527 59.3072 39.9332 59.3072 40.5221V41.8681L60.7442 40.5221C60.7442 40.2136 60.7166 39.9893 60.6337 39.849C60.5508 39.7088 60.4402 39.6527 60.2468 39.6527V39.3723H63.2868V39.6527C62.8999 39.6527 62.7064 39.9332 62.7064 40.5221V43.5227C62.7064 44.1116 62.8999 44.392 63.2868 44.392V44.6724H60.2468V44.392C60.4402 44.392 60.5784 44.3359 60.6337 44.1957C60.7166 44.0555 60.7442 43.8311 60.7442 43.5507V41.4475L59.3072 42.7936V43.5788C59.3072 44.1677 59.473 44.4481 59.8323 44.4481V44.7285H56.7646V44.4481C57.1516 44.4481 57.345 44.1677 57.345 43.5788V40.5221Z" fill="#FF3D00"/>
<path d="M67.5155 41.5877C68.0406 41.6998 68.4275 41.8681 68.7315 42.0924C69.0631 42.3448 69.2289 42.6813 69.2289 43.0739C69.2289 43.6067 68.9525 44.0274 68.4275 44.3359C67.9024 44.6443 67.1286 44.8126 66.106 44.8126C65.9678 44.8126 65.7467 44.7845 65.4427 44.7565C65.1387 44.7285 64.89 44.7004 64.7242 44.7004C64.5031 44.7004 64.282 44.7285 64.1162 44.7845L63.978 44.8126L63.5635 43.13L63.7846 43.0739L63.8398 43.13C64.0057 43.3824 64.282 43.6067 64.6966 43.803C65.1111 43.9993 65.5257 44.1115 65.9126 44.1115C66.2718 44.1115 66.5758 44.0274 66.7693 43.8311C66.9904 43.6348 67.0733 43.3824 67.0733 43.0739C67.0733 42.7374 66.9627 42.485 66.714 42.3168C66.4376 42.1205 65.9955 42.0363 65.3598 42.0363H65.2493V41.4474H65.3598C65.8296 41.4474 66.1336 41.3914 66.3271 41.2511C66.4929 41.139 66.5758 40.9146 66.5758 40.6062C66.5758 40.4379 66.4929 40.2696 66.3824 40.1575C66.2442 40.0172 66.0784 39.9612 65.8849 39.9612C65.5256 39.9612 65.194 40.0733 64.8624 40.2696C64.586 40.4379 64.3373 40.7183 64.0886 41.0829L64.0609 41.139L63.7846 41.0548L64.5307 39.1199L64.6413 39.3162C64.6689 39.3723 64.7518 39.4003 64.8624 39.4003C65.0558 39.3723 65.2493 39.3723 65.4151 39.3442C65.5809 39.3162 65.7744 39.3162 66.0231 39.3162C66.9351 39.3162 67.626 39.4283 68.0129 39.6246C68.4275 39.8209 68.6209 40.1294 68.6209 40.5501C68.6209 40.8025 68.5104 41.0268 68.2616 41.2511C68.0958 41.4194 67.8195 41.5316 67.5155 41.5877Z" fill="#FF3D00"/>
<path d="M70.0306 40.5221C70.0306 39.9332 69.8371 39.6527 69.4502 39.6527V39.3723H72.4902V39.6527C72.2967 39.6527 72.1585 39.7088 72.1033 39.849C72.0204 39.9893 71.9927 40.2136 71.9927 40.5221V41.0269H73.4298V40.5221C73.4298 40.2136 73.4022 39.9893 73.3193 39.849C73.2364 39.7088 73.1258 39.6527 72.9324 39.6527V39.3723H75.9723V39.6527C75.5854 39.6527 75.392 39.9332 75.392 40.5221V43.5227C75.392 44.1116 75.5854 44.392 75.9723 44.392V44.6724H72.9324V44.392C73.1258 44.392 73.264 44.3359 73.3193 44.1957C73.4022 44.0555 73.4298 43.8311 73.4298 43.5507V41.7279H71.9927V43.5507C71.9927 43.8592 72.0204 44.0835 72.1033 44.1957C72.1862 44.3359 72.2967 44.392 72.4902 44.392V44.6724H69.4502V44.392C69.8371 44.392 70.0306 44.1116 70.0306 43.5227V40.5221Z" fill="#FF3D00"/>
<path d="M76.9944 40.5221C76.9944 39.9332 76.801 39.6527 76.4141 39.6527V39.3723H79.4817V39.6527C79.1224 39.6527 78.9566 39.9332 78.9566 40.5221V41.8681L80.3937 40.5221C80.3937 40.2136 80.366 39.9893 80.2831 39.849C80.2002 39.7088 80.0897 39.6527 79.8962 39.6527V39.3723H82.9362V39.6527C82.5493 39.6527 82.3558 39.9332 82.3558 40.5221V43.5227C82.3558 44.1116 82.5493 44.392 82.9362 44.392V44.6724H79.8962V44.392C80.0897 44.392 80.2279 44.3359 80.2831 44.1957C80.366 44.0555 80.3937 43.8311 80.3937 43.5507V41.4475L78.9566 42.7936V43.5788C78.9566 44.1677 79.1224 44.4481 79.4817 44.4481V44.7285H76.4141V44.4481C76.801 44.4481 76.9944 44.1677 76.9944 43.5788V40.5221Z" fill="#FF3D00"/>
<path d="M89.2373 42.9897C89.182 42.8495 89.1267 42.7934 89.0162 42.7373C88.9056 42.7093 88.7674 42.6812 88.574 42.6812H88.3253H88.0213C87.8278 42.6812 87.662 42.7093 87.5238 42.7373C87.3856 42.7654 87.2751 42.8495 87.1922 42.9897L87.0264 42.9056L87.7725 41.1108C87.8002 41.195 87.8555 41.2791 87.9384 41.3071C88.0213 41.3352 88.1042 41.3632 88.2147 41.3632H88.4082H89.0714C89.3202 41.3632 89.486 41.3352 89.5689 41.3071C89.6518 41.2791 89.7347 41.223 89.79 41.1108L89.9558 41.195L89.2373 42.9897Z" fill="#FF3D00"/>
<path d="M96.7268 41.5317L97.5006 40.7745C97.9152 40.3819 98.1086 40.1015 98.1086 39.9332C98.1086 39.8491 98.0533 39.7649 97.9704 39.7369C97.8875 39.6808 97.777 39.6808 97.6664 39.6808V39.4004H100.762V39.6808C100.402 39.6808 100.071 39.7649 99.7115 39.9052C99.3522 40.0734 99.0482 40.2697 98.7442 40.5221L98.5508 40.6904C98.8272 41.0549 99.0482 41.3354 99.1864 41.5597C99.3799 41.8401 99.5733 42.1766 99.7392 42.4851L100.126 43.2703C100.347 43.719 100.485 43.9714 100.513 43.9994C100.706 44.2799 100.9 44.4201 101.121 44.4201V44.7005H97.6664V44.4201C97.8046 44.4201 97.9152 44.392 97.9981 44.3079C98.081 44.2238 98.1363 44.1396 98.1363 43.9994C98.1363 43.747 97.9981 43.3825 97.7494 42.9338C97.5559 42.5692 97.3072 42.2608 97.0861 41.9523L96.7544 42.2608V43.2142C96.7544 43.6349 96.7821 43.9153 96.8097 44.0555C96.865 44.2799 97.0308 44.4201 97.2519 44.4201V44.7005H94.2119V44.4201C94.5988 44.4201 94.7923 44.1397 94.7923 43.5507V40.5502C94.7923 39.9613 94.5988 39.6808 94.2119 39.6808V39.4004H97.2519V39.6808C97.0584 39.6808 96.8926 39.7649 96.8374 39.9612C96.7821 40.1015 96.7544 40.2697 96.7544 40.5502V41.5317H96.7268Z" fill="#FF3D00"/>
<path d="M105.128 43.4106C105.183 43.2704 105.239 43.0741 105.294 42.8497C105.321 42.6254 105.349 42.401 105.349 42.2047C105.349 41.9243 105.321 41.6719 105.294 41.3915C105.266 41.1391 105.183 40.8867 105.1 40.7185C105.017 40.5222 104.907 40.3819 104.769 40.2698C104.603 40.1296 104.437 40.0735 104.271 40.0735C103.884 40.0735 103.608 40.2978 103.442 40.7185C103.304 41.0269 103.249 41.3915 103.249 41.8402C103.249 42.3449 103.332 42.7936 103.47 43.1862C103.663 43.7471 103.995 43.9995 104.41 43.9995C104.575 43.9995 104.714 43.9434 104.852 43.8312C104.962 43.7191 105.073 43.5788 105.128 43.4106ZM102.143 44.2519C101.812 44.0275 101.563 43.7471 101.397 43.3545C101.231 42.9619 101.148 42.5693 101.148 42.1486C101.148 41.2513 101.48 40.5222 102.116 39.9893C102.724 39.4846 103.47 39.2322 104.382 39.2322C105.266 39.2322 105.985 39.4565 106.537 39.9333C107.145 40.438 107.449 41.1391 107.449 42.0365C107.449 42.9058 107.118 43.6069 106.482 44.1117C105.902 44.5884 105.156 44.8127 104.271 44.8127C103.857 44.8127 103.498 44.7566 103.111 44.6725C102.779 44.6164 102.42 44.4482 102.143 44.2519Z" fill="#FF3D00"/>
<path d="M109.301 43.2422C109.301 43.747 109.356 44.0555 109.439 44.1957C109.522 44.3359 109.688 44.42 109.909 44.42V44.7004H107.919V44.42C108.195 44.392 108.361 44.2518 108.416 44.0555C108.472 43.9433 108.472 43.6909 108.472 43.2983V40.8586C108.472 40.466 108.444 40.2136 108.416 40.0734C108.333 39.849 108.168 39.7088 107.919 39.6527V39.3723H111.125V39.6527C110.987 39.6527 110.904 39.7368 110.904 39.8771C110.904 40.0173 110.987 40.1575 111.125 40.3257L111.76 41.2231L112.396 40.3257C112.534 40.1294 112.589 39.9892 112.589 39.821C112.589 39.6808 112.534 39.6247 112.424 39.6247V39.3442H115.243V39.6247C114.966 39.6808 114.8 39.7929 114.745 39.9892C114.69 40.1014 114.69 40.3538 114.69 40.7183V43.1861C114.69 43.6348 114.717 43.9152 114.745 44.0274C114.828 44.2518 114.994 44.3639 115.243 44.3639V44.6444H112.203V44.3639C112.424 44.3639 112.562 44.2798 112.617 44.1396C112.672 44.0274 112.7 43.8311 112.7 43.5507V43.2422V41.0549L110.959 43.4666L109.273 41.0829V43.2422H109.301Z" fill="#FF3D00"/>
<path d="M121.24 43.2141C121.24 43.775 121.378 44.0274 121.655 44.0274C121.986 44.0274 122.235 43.8591 122.428 43.4945C122.594 43.13 122.705 42.6813 122.705 42.1485C122.705 41.5596 122.594 41.0548 122.373 40.6342C122.152 40.2135 121.848 39.9892 121.461 39.9892L121.295 40.0172V43.2141H121.24ZM119.278 40.0172L119.112 39.9892C118.725 39.9892 118.421 40.1855 118.2 40.6342C117.979 41.0548 117.869 41.5596 117.869 42.1485C117.869 42.7093 117.951 43.158 118.117 43.5226C118.283 43.8871 118.532 44.0554 118.891 44.0554C119.029 44.0554 119.14 43.9993 119.195 43.8591C119.25 43.7189 119.278 43.5226 119.278 43.2141V40.0172ZM119.278 38.7272C119.278 38.1664 119.084 37.8579 118.698 37.8579V37.5775L121.24 37.4373V39.2881C121.268 39.2881 121.378 39.2881 121.516 39.26C121.682 39.232 121.793 39.232 121.848 39.232C122.732 39.232 123.423 39.4844 123.976 40.0172C124.501 40.55 124.778 41.2791 124.778 42.2326C124.778 42.6252 124.695 42.9898 124.556 43.3263C124.391 43.6628 124.17 43.9432 123.893 44.1956C123.617 44.42 123.313 44.5882 123.009 44.6723C122.705 44.7565 122.346 44.8126 121.959 44.8126L121.24 44.7565V45.9062C121.24 46.1867 121.295 46.383 121.406 46.5512C121.516 46.7195 121.682 46.7756 121.876 46.7756V47.056H118.559V46.7756C118.753 46.7756 118.919 46.6914 119.057 46.5512C119.167 46.411 119.25 46.1867 119.25 45.9062V44.7565L118.532 44.8126C118.145 44.8126 117.786 44.7565 117.482 44.6723C117.178 44.5882 116.874 44.42 116.597 44.1956C116.321 43.9713 116.1 43.6908 115.934 43.3263C115.768 42.9898 115.713 42.6252 115.713 42.2326C115.713 41.2791 115.989 40.55 116.514 40.0172C117.039 39.4844 117.758 39.232 118.642 39.232C118.78 39.232 118.863 39.232 118.974 39.26C119.057 39.26 119.167 39.2881 119.278 39.2881V38.7272Z" fill="#FF3D00"/>
<path d="M129.227 43.4106C129.282 43.2704 129.337 43.0741 129.392 42.8497C129.42 42.6254 129.448 42.401 129.448 42.2047C129.448 41.9243 129.42 41.6719 129.392 41.3915C129.365 41.1391 129.282 40.8867 129.199 40.7185C129.116 40.5222 129.006 40.3819 128.867 40.2698C128.702 40.1296 128.536 40.0735 128.37 40.0735C127.983 40.0735 127.707 40.2978 127.541 40.7185C127.403 41.0269 127.347 41.3915 127.347 41.8402C127.347 42.3449 127.43 42.7936 127.568 43.1862C127.762 43.7471 128.094 43.9995 128.508 43.9995C128.674 43.9995 128.812 43.9434 128.95 43.8312C129.061 43.7191 129.144 43.5788 129.227 43.4106ZM126.242 44.2519C125.91 44.0275 125.662 43.7471 125.496 43.3545C125.33 42.9619 125.247 42.5693 125.247 42.1486C125.247 41.2513 125.579 40.5222 126.214 39.9893C126.822 39.4846 127.568 39.2322 128.48 39.2322C129.365 39.2322 130.083 39.4565 130.636 39.9333C131.244 40.438 131.548 41.1391 131.548 42.0365C131.548 42.9058 131.216 43.6069 130.581 44.1117C130 44.5884 129.254 44.8127 128.37 44.8127C127.955 44.8127 127.596 44.7566 127.209 44.6725C126.85 44.6164 126.518 44.4482 126.242 44.2519Z" fill="#FF3D00"/>
<path d="M134.533 43.2142C134.533 43.3263 134.533 43.4385 134.533 43.5507C134.533 43.6629 134.561 43.775 134.616 43.8311C134.727 43.9713 134.837 44.0274 135.031 44.0274C135.5 44.0274 135.832 43.8031 136.108 43.3824C136.33 43.0179 136.412 42.5972 136.412 42.0924C136.412 41.5316 136.274 41.0549 135.97 40.6903C135.639 40.2697 135.224 40.0734 134.671 40.0734H134.533V43.2142ZM135.279 39.4003C135.749 39.4003 136.164 39.4284 136.523 39.5125C136.882 39.5966 137.214 39.7649 137.518 40.0173C137.822 40.2697 138.071 40.6062 138.264 40.9707C138.458 41.3633 138.54 41.7559 138.54 42.1766C138.54 43.0179 138.236 43.6909 137.601 44.1957C137.352 44.42 136.993 44.5602 136.523 44.6724C136.164 44.7565 135.777 44.7846 135.362 44.7846C135.224 44.7846 135.114 44.7846 134.948 44.7565C134.81 44.7565 134.671 44.7285 134.533 44.7004V45.8502C134.533 46.1306 134.588 46.3269 134.699 46.4952C134.81 46.6354 134.975 46.7195 135.169 46.7195V47H131.853V46.7195C132.046 46.7195 132.212 46.6354 132.35 46.4952C132.488 46.355 132.543 46.1306 132.543 45.8502V40.494C132.543 39.9331 132.35 39.6247 131.963 39.6247V39.3442H135.279V39.4003Z" fill="#FF3D00"/>
<path d="M142.602 43.2984C142.602 43.6349 142.602 43.8592 142.63 43.9434C142.685 44.2518 142.851 44.4201 143.127 44.4201V44.7005H140.06V44.4201C140.253 44.4201 140.391 44.364 140.502 44.2238C140.585 44.0836 140.64 43.7751 140.64 43.2984V40.0734C140.226 40.0734 139.839 40.2136 139.535 40.466C139.231 40.7465 139.01 41.111 138.871 41.5878L138.65 41.5317L139.175 39.2041C139.231 39.2882 139.286 39.3163 139.369 39.3443C139.452 39.3724 139.562 39.3724 139.701 39.3724H139.839H139.977H143.155H143.431C143.597 39.3724 143.708 39.3724 143.846 39.3443C143.957 39.3163 144.039 39.2602 144.095 39.2041L144.592 41.5317L144.371 41.5878C144.178 41.083 143.957 40.7184 143.708 40.466C143.431 40.1856 143.045 40.0454 142.63 40.0454V43.2984H142.602Z" fill="#FF3D00"/>
<path d="M148.848 40.5221C148.848 39.9332 148.654 39.6527 148.268 39.6527V39.3723H151.308V39.6527C151.114 39.6527 150.976 39.7088 150.921 39.849C150.838 39.9893 150.81 40.2136 150.81 40.5221V41.0269H152.247V40.5221C152.247 40.2136 152.22 39.9893 152.137 39.849C152.054 39.7088 151.943 39.6527 151.75 39.6527V39.3723H154.79V39.6527C154.403 39.6527 154.209 39.9332 154.209 40.5221V43.5227C154.209 44.1116 154.403 44.392 154.79 44.392V44.6724H151.75V44.392C151.943 44.392 152.081 44.3359 152.137 44.1957C152.22 44.0555 152.247 43.8311 152.247 43.5507V41.7279H150.81V43.5507C150.81 43.8592 150.838 44.0835 150.921 44.1957C151.004 44.3359 151.114 44.392 151.308 44.392V44.6724H148.268V44.392C148.654 44.392 148.848 44.1116 148.848 43.5227V40.5221Z" fill="#FF3D00"/>
<path d="M157.886 42.0645C157.72 42.1767 157.554 42.3169 157.443 42.5132C157.305 42.6815 157.25 42.8778 157.25 43.0741C157.25 43.2423 157.305 43.4106 157.416 43.5508C157.526 43.691 157.665 43.7471 157.83 43.7471C158.217 43.7471 158.494 43.4947 158.632 43.018C158.742 42.6815 158.798 42.2608 158.798 41.7841C158.576 41.8121 158.411 41.8682 158.273 41.8963C158.162 41.9243 158.024 41.9804 157.886 42.0645ZM158.798 41.055V40.8587C158.798 40.7465 158.798 40.6343 158.77 40.5502C158.742 40.4661 158.715 40.41 158.659 40.3259C158.549 40.2137 158.438 40.1576 158.3 40.1015C158.162 40.0735 158.024 40.0454 157.83 40.0454C157.416 40.0454 157.029 40.1576 156.697 40.3819C156.366 40.6063 156.117 40.9428 155.951 41.3354H155.73L155.951 39.4004C156.006 39.4565 156.062 39.5126 156.117 39.5407C156.172 39.5687 156.227 39.5967 156.31 39.5967C156.366 39.5967 156.449 39.5967 156.531 39.5687C156.614 39.5407 156.67 39.5407 156.753 39.5126C157.278 39.4004 157.692 39.3163 157.941 39.2883C158.19 39.2602 158.438 39.2322 158.687 39.2322C159.019 39.2322 159.323 39.2602 159.599 39.3163C159.875 39.3724 160.096 39.4846 160.318 39.6248C160.539 39.793 160.677 40.0174 160.732 40.3539C160.787 40.5502 160.787 40.8587 160.787 41.2513V43.2143V43.4386C160.787 43.7191 160.815 43.9434 160.87 44.0556C160.953 44.2519 161.119 44.364 161.368 44.3921V44.6725H159.184C159.102 44.5884 159.019 44.4762 158.963 44.364C158.908 44.2238 158.853 44.1117 158.825 43.9714C158.659 44.2238 158.355 44.4482 157.968 44.6164C157.609 44.7566 157.25 44.8408 156.891 44.8408C156.476 44.8408 156.117 44.7286 155.813 44.5043C155.481 44.2519 155.315 43.9154 155.315 43.4947C155.315 42.9899 155.537 42.5412 155.951 42.2047C156.283 41.9243 156.753 41.7 157.361 41.5037C157.775 41.3634 158.273 41.2793 158.853 41.1952V41.055H158.798Z" fill="#FF3D00"/>
<path d="M167.724 41.5317L168.498 40.7745C168.912 40.3819 169.106 40.1015 169.106 39.9332C169.106 39.8491 169.05 39.7649 168.968 39.7369C168.885 39.6808 168.774 39.6808 168.664 39.6808V39.4004H171.759V39.6808C171.399 39.6808 171.068 39.7649 170.709 39.9052C170.349 40.0734 170.045 40.2697 169.741 40.5221L169.548 40.6904C169.824 41.0549 170.045 41.3354 170.183 41.5597C170.377 41.8401 170.57 42.1766 170.736 42.4851L171.123 43.2703C171.344 43.719 171.482 43.9714 171.51 43.9994C171.703 44.2799 171.897 44.4201 172.118 44.4201V44.7005H168.664V44.4201C168.802 44.4201 168.912 44.392 168.995 44.3079C169.078 44.2238 169.133 44.1396 169.133 43.9994C169.133 43.747 168.995 43.3825 168.746 42.9338C168.553 42.5692 168.304 42.2608 168.083 41.9523L167.752 42.2608V43.2142C167.752 43.6349 167.779 43.9153 167.807 44.0555C167.862 44.2799 168.028 44.4201 168.249 44.4201V44.7005H165.209V44.4201C165.596 44.4201 165.789 44.1397 165.789 43.5507V40.5502C165.789 39.9613 165.596 39.6808 165.209 39.6808V39.4004H168.249V39.6808C168.056 39.6808 167.89 39.7649 167.834 39.9612C167.779 40.1015 167.752 40.2697 167.752 40.5502V41.5317H167.724Z" fill="#FF3D00"/>
<path d="M176.484 40.7464C176.539 40.6062 176.567 40.466 176.595 40.3819C176.622 40.2697 176.622 40.1856 176.622 40.0734C176.622 39.9332 176.567 39.849 176.484 39.7649C176.401 39.7088 176.291 39.6808 176.153 39.6808V39.4004H178.308V39.6808C178.032 39.6808 177.811 39.849 177.617 40.1575C177.534 40.2697 177.424 40.5501 177.258 41.0269L175.545 45.3735C175.323 45.9063 175.102 46.2989 174.881 46.5233C174.577 46.8317 174.163 47 173.665 47C173.444 47 173.223 46.972 173.002 46.8878C172.781 46.8037 172.56 46.6915 172.366 46.5513L172.947 45.1492L173.168 45.2333C173.168 45.3174 173.168 45.4015 173.168 45.4857C173.168 45.6259 173.223 45.7661 173.361 45.8783C173.499 45.9905 173.638 46.0465 173.776 46.0465C174.052 46.0465 174.273 45.9063 174.467 45.6539C174.633 45.4015 174.715 45.1211 174.715 44.8126C174.715 44.6163 174.66 44.364 174.577 44.1116C174.522 43.9994 174.439 43.7751 174.273 43.4385L172.891 40.5782C172.726 40.2416 172.615 40.0453 172.56 39.9612C172.394 39.7649 172.201 39.6527 171.979 39.6527V39.3723H175.406V39.6527C175.268 39.6527 175.13 39.6808 175.047 39.7088C174.964 39.7649 174.909 39.849 174.909 39.9612C174.909 40.0173 174.937 40.1014 174.964 40.2136C174.992 40.3258 175.047 40.4099 175.075 40.494L175.876 42.5131L176.484 40.7464Z" fill="#FF3D00"/>
<path d="M184.057 43.8592C184.195 44.0555 184.306 44.1677 184.361 44.2237C184.499 44.364 184.637 44.42 184.776 44.42V44.7005H181.515V44.42C181.597 44.42 181.68 44.392 181.736 44.364C181.791 44.3359 181.819 44.2798 181.819 44.2237C181.819 44.1396 181.791 44.0835 181.763 44.0274C181.736 43.9714 181.68 43.8872 181.625 43.7751L180.934 42.6814L180.271 43.5227C180.16 43.6629 180.078 43.747 180.05 43.8311C179.967 43.9714 179.939 44.0835 179.939 44.1957C179.939 44.2518 179.967 44.3079 179.995 44.364C180.05 44.42 180.133 44.4481 180.243 44.4481V44.7285H178.198V44.4481C178.447 44.392 178.696 44.2518 178.944 44.0274C179.027 43.9433 179.221 43.719 179.497 43.3544L180.52 42.0364L179.552 40.5221C179.331 40.2136 179.221 40.0173 179.166 39.9612C178.972 39.7649 178.779 39.6527 178.585 39.6527V39.3723H181.901V39.6527C181.791 39.6808 181.708 39.6808 181.625 39.7369C181.542 39.7649 181.515 39.849 181.515 39.9332C181.515 39.9893 181.542 40.0453 181.57 40.1295C181.597 40.1856 181.68 40.3258 181.763 40.466L182.067 40.9708L182.233 40.7745C182.344 40.6342 182.454 40.494 182.537 40.3538C182.675 40.1575 182.731 39.9893 182.731 39.8771C182.731 39.793 182.703 39.7369 182.648 39.7088C182.592 39.6808 182.509 39.6808 182.427 39.6808V39.4004H184.416V39.6808C184.168 39.7369 183.947 39.821 183.781 39.9612C183.67 40.0453 183.504 40.2136 183.311 40.494L182.454 41.5877L184.057 43.8592Z" fill="#FF3D00"/>
<path d="M185.605 40.5221C185.605 39.9332 185.411 39.6527 185.024 39.6527V39.3723H188.064V39.6527C187.871 39.6527 187.733 39.7088 187.677 39.849C187.595 39.9893 187.567 40.2136 187.567 40.5221V41.0269H189.004V40.5221C189.004 40.2136 188.976 39.9893 188.893 39.849C188.811 39.7088 188.7 39.6527 188.507 39.6527V39.3723H191.547V39.6527C191.16 39.6527 190.966 39.9332 190.966 40.5221V43.5227C190.966 44.1116 191.16 44.392 191.547 44.392V44.6724H188.507V44.392C188.7 44.392 188.838 44.3359 188.893 44.1957C188.976 44.0555 189.004 43.8311 189.004 43.5507V41.7279H187.567V43.5507C187.567 43.8592 187.595 44.0835 187.677 44.1957C187.76 44.3359 187.871 44.392 188.064 44.392V44.6724H185.024V44.392C185.411 44.392 185.605 44.1116 185.605 43.5227V40.5221Z" fill="#FF3D00"/>
<path d="M195.885 41.1672V40.9989C195.885 40.7465 195.802 40.5222 195.637 40.3539C195.471 40.1857 195.277 40.0735 195.029 40.0735C194.725 40.0735 194.476 40.2418 194.31 40.5783C194.172 40.8307 194.117 41.1391 194.117 41.5317L195.885 41.1672ZM194.2 42.1767C194.255 42.6815 194.421 43.0741 194.669 43.3826C194.946 43.7471 195.333 43.9154 195.802 43.9154C196.217 43.9154 196.576 43.8032 196.908 43.5789C197.24 43.3545 197.488 43.0461 197.654 42.6535L197.875 42.7376L197.212 44.7847C197.157 44.7567 197.129 44.7286 197.101 44.7006C197.018 44.6445 196.963 44.6445 196.88 44.6445L196.659 44.6725C196.438 44.7006 196.217 44.7286 195.996 44.7567C195.775 44.7847 195.554 44.8128 195.333 44.8128C194.918 44.8128 194.531 44.7567 194.144 44.6725C193.757 44.5604 193.426 44.4202 193.122 44.1958C192.762 43.9434 192.514 43.6069 192.32 43.2424C192.127 42.8778 192.044 42.4572 192.044 42.0085C192.044 41.1391 192.376 40.4661 193.011 39.9613C193.592 39.4846 194.338 39.2603 195.222 39.2603C195.968 39.2603 196.576 39.4285 197.074 39.765C197.599 40.1576 197.93 40.6904 198.069 41.3915L194.2 42.1767Z" fill="#FF3D00"/>
</g>
<defs>
<clipPath id="clip0">
<rect width="206" height="47" fill="white"/>
</clipPath>
</defs>
</svg>
