<svg width="206" height="47" fill="none" xmlns="http://www.w3.org/2000/svg"><g clip-path="url(#clip0)" fill="#FF3D00"><path d="M2.432 5.637c0-1.767-.193-2.945-.553-3.534C1.492 1.514.884 1.15 0 1.01V.673h8.954v.337c-.829.084-1.437.392-1.824.953-.387.56-.608 1.683-.608 3.421v4.627l3.234-2.608c1.713-1.43 2.929-2.551 3.647-3.337.885-.953 1.355-1.682 1.355-2.131 0-.336-.083-.56-.249-.673-.166-.112-.415-.196-.774-.252V.673h9.01v.337c-1.272 0-2.543.392-3.787 1.177-.331.197-1.381 1.038-3.205 2.552L12.96 7.095c1.824 1.71 3.427 3.702 4.81 5.945 1.298 2.047 2.459 4.347 3.454 6.899l.718 1.738c.498 1.234.83 1.991.967 2.244.498.813 1.134 1.262 1.88 1.374v.336h-8.236v-.336c.884-.14 1.299-.617 1.299-1.487 0-.925-.332-2.215-.967-3.841-.47-1.15-1.078-2.356-1.769-3.618a32.529 32.529 0 00-2.266-3.477 52.103 52.103 0 00-2.764-3.365L6.55 12.395v8.273c0 1.458.11 2.468.304 3.028.359.954 1.05 1.487 2.128 1.599v.336H0v-.336c1.05-.169 1.741-.701 2.1-1.543.221-.56.332-1.486.332-2.804V5.637z"/><path d="M37.088 11.441c.166-.532.359-1.065.525-1.626.166-.56.248-.982.248-1.29 0-.365-.11-.645-.303-.841-.194-.197-.553-.337-1.05-.393v-.336H42.2v.336c-.746.112-1.354.505-1.796 1.262-.193.337-.497 1.038-.857 2.16l-5.776 16.881c-.856 2.552-1.851 4.235-2.901 5.076-.912.73-2.1 1.094-3.51 1.094a5.618 5.618 0 01-1.935-.337 5.326 5.326 0 01-1.74-1.037l2.127-5.132.304.196c-.083.308-.11.617-.11.897 0 .786.193 1.459.608 2.02.386.56.94.84 1.63.84 1.106 0 1.962-.532 2.57-1.626.525-.897.774-1.99.774-3.225 0-.813-.193-1.794-.608-2.916-.138-.42-.525-1.374-1.16-2.832l-4.34-10.096c-.442-1.066-.773-1.767-.994-2.075-.498-.73-1.05-1.094-1.686-1.094v-.336h7.49v.336c-.415.056-.72.168-.913.365-.193.196-.276.448-.276.785 0 .28.083.617.249 1.038.165.42.276.729.359.953l4.2 10.46 3.179-9.507zm21.916 11.218c.387.533.746 1.065 1.16 1.598.525.617 1.05.954 1.603 1.01v.336h-7.71v-.336c.774-.113 1.16-.393 1.16-.898 0-.364-.193-.897-.608-1.542-.386-.533-.635-.926-.829-1.206l-2.79-4.262-2.71 3.393c-1.492 1.907-2.238 3.14-2.238 3.701 0 .45.387.73 1.106.842v.336h-5.749v-.336c.443-.113.857-.28 1.216-.561.36-.28.94-.926 1.686-1.935l5.583-6.955-3.123-4.57c-1.189-1.767-1.907-2.749-2.128-3.001-.636-.617-1.189-.954-1.714-.954v-.336h8.015v.336c-.83.084-1.244.393-1.244.982 0 .308.138.7.387 1.177.194.365.47.786.83 1.29l1.409 2.104 1.658-2.244c.525-.729.857-1.178.94-1.374.276-.505.442-.925.442-1.234 0-.477-.36-.729-1.106-.729v-.336h6.274v.336c-.885.084-1.77.561-2.681 1.486-.221.225-.912 1.066-2.1 2.496l-2.488 3.029 5.749 8.357zm18.626-7.852h-8.816v6.141c0 1.767.166 2.945.525 3.505.36.561.912.842 1.714.842v.336h-8.291v-.336c.967 0 1.63-.449 1.934-1.374.194-.59.304-1.57.304-2.945v-9.338c0-1.767-.166-2.917-.525-3.478-.36-.56-.912-.84-1.713-.84v-.337h8.29v.336c-.967 0-1.63.449-1.934 1.346-.193.59-.304 1.543-.304 2.945v1.514h8.816V11.61c0-1.739-.166-2.917-.525-3.45-.36-.56-.912-.813-1.714-.813v-.336h8.291v.336c-.967 0-1.63.449-1.934 1.374-.194.59-.304 1.57-.304 2.945v9.338c0 1.767.166 2.917.525 3.477.36.561.912.842 1.713.842v.336h-8.29v-.336c.967 0 1.602-.449 1.934-1.374.193-.59.304-1.57.304-2.973v-6.17zm22.772-3.281l-8.816 7.796v1.654c0 1.767.166 2.916.526 3.477.359.561.912.842 1.713.842v.336h-8.29v-.336c.966-.084 1.602-.561 1.934-1.487.193-.56.304-1.486.304-2.832v-9.338c0-1.374-.083-2.3-.249-2.805-.332-.925-.995-1.43-1.99-1.514v-.336h8.291v.336c-.967 0-1.63.449-1.934 1.374-.194.59-.305 1.57-.305 2.945v5.552l8.816-7.796c-.055-.42-.138-.757-.248-.953-.387-.673-1.023-1.066-1.99-1.15v-.336h8.291v.336c-.968 0-1.631.449-1.935 1.374-.193.59-.304 1.57-.304 2.945v9.338c0 1.767.166 2.916.525 3.477.36.561.912.842 1.714.842v.336h-8.291v-.336c.967-.084 1.603-.561 1.934-1.487.194-.56.304-1.486.304-2.832v-9.422zm29.93 14.442a2.738 2.738 0 00-.746-.084h-.497l-4.505.224c-2.183 0-4.118-.252-5.776-.73-1.934-.56-3.648-1.43-5.113-2.663a12.546 12.546 0 01-3.592-4.767c-.802-1.851-1.216-3.842-1.216-5.974 0-1.71.304-3.337.939-4.88a9.51 9.51 0 012.792-3.87 11.156 11.156 0 014.228-2.214 18.53 18.53 0 015.057-.673l4.118.336 1.188.112c.36 0 .664-.056.885-.168.221-.112.414-.309.553-.617l1.713 7.123-.304.112c-.663-1.57-1.741-2.776-3.233-3.646-1.493-.869-3.123-1.29-4.92-1.29-1.326 0-2.459.197-3.454.561-.995.365-1.879 1.038-2.653 1.963a10.037 10.037 0 00-1.797 3.197 11.31 11.31 0 00-.608 3.702c0 3.393 1.023 6.282 3.068 8.665 2.128 2.524 4.864 3.758 8.18 3.758 1.88 0 3.538-.533 4.92-1.57 1.381-1.038 2.487-2.468 3.344-4.319l.386.14-2.957 7.572zm18.6-14.442l-8.816 7.796v1.654c0 1.767.166 2.916.525 3.477.359.561.912.842 1.713.842v.336h-8.291v-.336c.968-.084 1.631-.561 1.935-1.487.193-.56.304-1.486.304-2.832v-9.338c0-1.374-.083-2.3-.249-2.805-.331-.925-.995-1.43-1.99-1.514v-.336h8.291v.336c-.967 0-1.63.449-1.934 1.374-.194.59-.304 1.57-.304 2.945v5.552l8.816-7.796c-.056-.42-.138-.757-.249-.953-.387-.673-1.023-1.066-1.99-1.15v-.336h8.291v.336c-.967 0-1.63.449-1.934 1.374-.194.59-.304 1.57-.304 2.945v9.338c0 1.767.165 2.916.525 3.477.359.561.912.842 1.713.842v.336h-8.291v-.336c.967-.084 1.603-.561 1.935-1.487.193-.56.304-1.486.304-2.832v-9.422zm18.018 9.478c0 1.402.111 2.356.304 2.889.359.925 1.05 1.402 2.128 1.402v.336h-8.623v-.336c1.051 0 1.742-.477 2.073-1.43.221-.59.332-1.543.332-2.86v-12.2c-2.183 0-3.814.421-4.919 1.29-.94.73-1.797 2.076-2.571 4.067l-.331-.113 1.824-7.459a.972.972 0 00.552.393c.222.056.526.084.94.084h12.823c.36 0 .664-.028.912-.084a.955.955 0 00.581-.393l1.824 7.46-.332.112c-.746-1.935-1.603-3.281-2.57-4.01-1.106-.87-2.764-1.318-4.919-1.318v12.17h-.028zm22.993-9.478l-8.815 7.796v1.654c0 1.767.165 2.916.525 3.477.359.561.912.842 1.713.842v.336h-8.291v-.336c.967-.084 1.631-.561 1.935-1.487.193-.56.304-1.486.304-2.832v-9.338c0-1.374-.083-2.3-.249-2.805-.332-.925-.995-1.43-1.99-1.514v-.336h8.291v.336c-.967 0-1.63.449-1.934 1.374-.194.59-.304 1.57-.304 2.945v5.552l8.815-7.796c-.055-.42-.138-.757-.248-.953-.387-.673-1.023-1.066-1.99-1.15v-.336h8.291v.336c-.967 0-1.631.449-1.935 1.374-.193.59-.304 1.57-.304 2.945v9.338c0 1.767.166 2.916.525 3.477.36.561.912.842 1.714.842v.336h-8.291v-.336c.967-.084 1.603-.561 1.934-1.487.194-.56.304-1.486.304-2.832v-9.422zm11.856-5.553v-.981h.995c.387 0 .912.056.912.448 0 .617-.829.505-1.271.505h-.636v.028zm1.244.561c.663-.028 1.188-.308 1.188-1.038 0-.813-.663-1.01-1.354-1.01h-1.631v3.815h.526V6.534h.635l1.106 1.767h.635l-1.105-1.767zm-.498 3.337c1.935 0 3.427-1.542 3.427-3.505 0-1.963-1.52-3.506-3.427-3.506-1.934 0-3.454 1.543-3.454 3.506 0 1.963 1.52 3.505 3.454 3.505zm0-.533c-1.575 0-2.929-1.318-2.929-2.944a2.946 2.946 0 012.929-2.945c1.576 0 2.902 1.29 2.902 2.945.028 1.626-1.326 2.944-2.902 2.944zM6.633 44.925c-.055-.084-.083-.112-.166-.14-.055-.028-.138-.028-.221-.028h-.11l-1.52.084c-1.244 0-2.294-.309-3.096-.954-.912-.7-1.354-1.682-1.354-2.916 0-1.122.387-1.991 1.133-2.636.719-.617 1.63-.926 2.736-.926.249 0 .498.028.746.056.249.028.498.084.774.113.055.028.11.028.166.028h.221c.249 0 .415-.084.525-.28l.608 3.056-.221.056c-.193-.589-.497-1.094-.884-1.458-.443-.449-.94-.645-1.52-.645-.636 0-1.133.252-1.493.757-.304.449-.47 1.01-.47 1.683 0 .392.056.757.166 1.121.11.365.277.701.498 1.01.22.308.525.56.884.757.36.196.746.28 1.133.28.47 0 .912-.14 1.271-.392.387-.253.636-.617.83-1.066l.248.084-.884 2.356zm4.725-1.627c0 .337 0 .561.028.645.055.309.221.477.498.477v.28H8.816v-.28c.193 0 .332-.056.415-.196.082-.14.138-.449.138-.926v-3.225c-.415 0-.802.14-1.106.393-.304.28-.525.645-.663 1.122l-.221-.056.525-2.328a.32.32 0 00.193.14c.083.028.194.028.332.028h3.731c.166 0 .304 0 .415-.028a.531.531 0 00.248-.14l.498 2.328-.221.056c-.194-.505-.415-.87-.664-1.122-.276-.28-.663-.42-1.078-.42v3.252zm2.653-2.776c0-.589-.193-.87-.58-.87v-.28h3.067v.28c-.359 0-.525.281-.525.87v1.346l1.437-1.346c0-.308-.027-.533-.11-.673s-.194-.196-.387-.196v-.28h3.04v.28c-.387 0-.58.28-.58.87v3c0 .589.193.869.58.869v.28h-3.04v-.28c.193 0 .331-.056.387-.196.083-.14.11-.365.11-.645v-2.104l-1.437 1.347v.785c0 .589.166.87.525.87v.28h-3.04v-.28c.387 0 .58-.281.58-.87v-3.057h-.027zm8.43-.14c-.332.308-.608.757-.829 1.346a5.264 5.264 0 00-.332 1.879c0 .196.083.364.277.533.22.196.47.28.801.28v.28h-2.1v-.112c0-.673.055-1.262.193-1.822a6.139 6.139 0 011.354-2.636c.056-.057.083-.113.083-.14.028-.057.028-.085.028-.14 0-.113-.083-.17-.249-.17h-.083v-.28h4.726v.28c-.249 0-.414.113-.497.337-.056.14-.083.421-.083.785v2.553c0 .392.027.644.083.785.083.224.248.336.497.336v.28h-3.04v-.28c.166 0 .304-.056.387-.196.083-.14.11-.449.11-.898v-2.551a3 3 0 00-.055-.645c-.055-.113-.165-.169-.331-.169-.194 0-.36.028-.498.084-.138.029-.276.14-.442.28zm7.351 3.674a.91.91 0 00.69-.281c.194-.196.277-.42.277-.73 0-.364-.11-.672-.36-.925-.275-.28-.635-.42-1.077-.42v1.598c0 .28.028.477.083.59.055.14.194.168.387.168zm-3.04.616v-.28a.534.534 0 00.442-.224c.083-.14.138-.45.138-.898v-2.552c0-.364-.027-.617-.083-.757-.082-.224-.248-.336-.497-.336v-.28h3.178v.28c-.276 0-.47.112-.553.336-.055.14-.082.393-.082.757v.337c.994 0 1.768.14 2.349.42.718.337 1.077.87 1.077 1.57 0 .506-.276.898-.801 1.179-.525.28-1.244.42-2.183.42h-2.985v.028zm12.27-2.467v1.093c0 .309.055.505.138.617.083.112.249.169.498.169.304 0 .552-.085.746-.28.193-.17.276-.45.276-.758 0-.28-.055-.533-.193-.701a.836.836 0 00-.525-.393l-.94.253zm1.023-1.57a.783.783 0 00-.139-.45.496.496 0 00-.414-.196c-.194 0-.304.028-.36.112-.082.113-.138.309-.138.645v.73l.415-.113a.812.812 0 00.442-.28c.138-.112.194-.252.194-.449zm2.045-.197c0 .224-.11.42-.36.645a1.9 1.9 0 01-.746.392c.525.085.968.253 1.327.505.331.253.525.59.525.954 0 .589-.277 1.01-.857 1.318-.525.28-1.188.42-1.99.42h-3.51v-.28c.25 0 .415-.112.498-.337.055-.168.083-.42.083-.757v-2.552c0-.364-.028-.617-.083-.757-.083-.224-.249-.336-.497-.336v-.28h3.26c.72 0 1.244.027 1.52.111.553.169.83.477.83.954zm7.904 4.234v-.28c.22 0 .359-.112.442-.337.055-.14.055-.42.055-.84v-.954l-.332-.309c-.193.225-.386.561-.58.982-.193.448-.304.785-.304 1.037 0 .28.138.421.442.421v.28h-3.454v-.28c.22 0 .414-.14.608-.42.027-.029.138-.281.387-.73l.386-.785c.139-.28.332-.589.553-.925.166-.253.387-.561.636-.87l-.194-.168a3.817 3.817 0 00-.967-.617 2.498 2.498 0 00-1.05-.252v-.28h3.012v.28a.462.462 0 00-.276.084c-.083.056-.11.112-.11.224 0 .084.082.224.276.449.11.14.22.28.359.42l.636.702v-1.01c0-.28-.028-.477-.056-.589-.083-.196-.22-.28-.442-.28v-.28h2.957v.28c-.22 0-.359.084-.442.28-.055.112-.055.309-.055.589v1.01l.636-.701c.193-.197.331-.393.47-.561.11-.169.165-.253.165-.309 0-.084-.055-.168-.138-.224a.462.462 0 00-.276-.084v-.28h3.012v.28c-.36 0-.691.084-1.05.224-.36.168-.663.365-.967.617l-.194.168c.276.365.497.645.636.87.193.28.386.617.552.925l.387.785c.194.42.332.673.36.73.193.28.386.42.635.42v.28h-3.4v-.28c.25 0 .388-.14.388-.42 0-.253-.11-.618-.304-1.038-.194-.421-.387-.758-.608-1.01l-.332.309v.953c0 .533.028.841.11.982.084.14.194.196.388.196v.28h-2.957v.056zm7.351-4.15c0-.589-.193-.87-.58-.87v-.28h3.067v.28c-.359 0-.525.281-.525.87v1.346l1.437-1.346c0-.308-.027-.533-.11-.673s-.194-.196-.387-.196v-.28h3.04v.28c-.387 0-.58.28-.58.87v3c0 .589.193.869.58.869v.28h-3.04v-.28c.193 0 .331-.056.387-.196.083-.14.11-.365.11-.645v-2.104l-1.437 1.347v.785c0 .589.166.87.525.87v.28h-3.067v-.28c.387 0 .58-.281.58-.87v-3.057zm10.171 1.066c.525.112.911.28 1.215.504.332.253.498.59.498.982 0 .533-.276.953-.802 1.262-.525.308-1.298.477-2.321.477-.138 0-.36-.029-.663-.056-.304-.029-.553-.057-.719-.057-.22 0-.442.028-.608.084l-.138.029-.415-1.683.222-.056.055.056c.166.252.442.477.857.673.414.196.829.309 1.216.309.359 0 .663-.085.856-.28.221-.197.304-.45.304-.758 0-.337-.11-.589-.359-.757-.276-.197-.718-.28-1.354-.28h-.11v-.59h.11c.47 0 .774-.056.967-.196.166-.112.249-.336.249-.645a.666.666 0 00-.691-.645c-.36 0-.691.112-1.023.309-.276.168-.525.448-.773.813l-.028.056-.276-.084.746-1.935.11.196c.028.056.11.084.221.084.194-.028.387-.028.553-.056.166-.028.36-.028.608-.028.912 0 1.603.112 1.99.309.414.196.608.504.608.925 0 .253-.11.477-.36.701-.165.168-.441.28-.745.337zm2.514-1.066c0-.589-.193-.87-.58-.87v-.28h3.04v.28c-.193 0-.331.057-.387.197-.083.14-.11.365-.11.673v.505h1.437v-.505c0-.308-.028-.533-.11-.673-.084-.14-.194-.196-.388-.196v-.28h3.04v.28c-.387 0-.58.28-.58.87v3c0 .589.193.869.58.869v.28h-3.04v-.28c.194 0 .332-.056.387-.196.083-.14.11-.365.11-.645v-1.823h-1.436v1.823c0 .308.027.532.11.645.083.14.194.196.387.196v.28h-3.04v-.28c.387 0 .58-.28.58-.87v-3zm6.964 0c0-.589-.193-.87-.58-.87v-.28h3.068v.28c-.36 0-.525.281-.525.87v1.346l1.437-1.346c0-.308-.028-.533-.11-.673-.084-.14-.194-.196-.388-.196v-.28h3.04v.28c-.387 0-.58.28-.58.87v3c0 .589.193.869.58.869v.28h-3.04v-.28c.194 0 .332-.056.387-.196.083-.14.11-.365.11-.645v-2.104l-1.436 1.347v.785c0 .589.165.87.525.87v.28h-3.068v-.28c.387 0 .58-.281.58-.87v-3.057zm12.243 2.468c-.055-.14-.11-.197-.22-.253a1.71 1.71 0 00-.443-.056h-.553c-.193 0-.359.028-.497.056a.494.494 0 00-.332.253l-.166-.084.746-1.795c.028.084.084.168.166.196a.806.806 0 00.277.056h.855a1.7 1.7 0 00.498-.056.371.371 0 00.221-.196l.166.084-.719 1.795zm7.49-1.458l.774-.757c.414-.393.608-.673.608-.842a.21.21 0 00-.139-.196c-.082-.056-.193-.056-.304-.056v-.28h3.096v.28c-.36 0-.691.084-1.05.224a4.37 4.37 0 00-.968.617l-.193.168c.276.365.497.645.635.87.194.28.387.617.553.925l.387.785c.221.449.359.701.387.73.193.28.387.42.608.42v.28h-3.455v-.28c.139 0 .25-.028.332-.112a.404.404 0 00.138-.309c0-.252-.138-.617-.387-1.065-.193-.365-.442-.673-.663-.982l-.332.309v.953c0 .42.028.701.056.842.055.224.22.364.442.364v.28h-3.04v-.28c.387 0 .58-.28.58-.87v-3c0-.589-.193-.87-.58-.87v-.28h3.04v.28c-.194 0-.36.085-.415.281-.055.14-.083.309-.083.59v.98h-.027zm8.401 1.878c.055-.14.111-.336.166-.56.027-.225.055-.449.055-.645 0-.28-.028-.533-.055-.813a2.15 2.15 0 00-.194-.674 1.115 1.115 0 00-.331-.448.753.753 0 00-.498-.197c-.387 0-.663.225-.829.645-.138.309-.193.673-.193 1.122 0 .505.083.954.221 1.346.193.561.525.813.94.813a.673.673 0 00.442-.168c.11-.112.221-.252.276-.42zm-2.985.842a1.98 1.98 0 01-.746-.898 3.035 3.035 0 01-.249-1.205c0-.898.332-1.627.968-2.16.608-.504 1.354-.757 2.266-.757.884 0 1.603.224 2.155.701.608.505.912 1.206.912 2.103 0 .87-.331 1.57-.967 2.076-.58.476-1.326.7-2.211.7a5.21 5.21 0 01-1.16-.14 2.495 2.495 0 01-.968-.42zm7.158-1.01c0 .505.055.814.138.954.083.14.249.224.47.224v.28h-1.99v-.28c.276-.028.442-.168.497-.364.056-.113.056-.365.056-.758v-2.44c0-.392-.028-.644-.056-.785a.644.644 0 00-.497-.42v-.28h3.206v.28c-.138 0-.221.084-.221.224s.083.28.221.449l.635.897.636-.897c.138-.197.193-.337.193-.505 0-.14-.055-.196-.165-.196v-.28h2.819v.28c-.277.056-.443.168-.498.364-.055.112-.055.365-.055.73v2.467c0 .449.027.73.055.841.083.225.249.337.498.337v.28h-3.04v-.28c.221 0 .359-.084.414-.224.055-.113.083-.309.083-.59v-2.494l-1.741 2.412-1.686-2.384v2.16h.028zm11.939-.028c0 .561.138.813.415.813.331 0 .58-.168.773-.532.166-.365.277-.814.277-1.346 0-.59-.111-1.094-.332-1.515-.221-.42-.525-.645-.912-.645l-.166.028v3.197h-.055zm-1.962-3.197l-.166-.028c-.387 0-.691.197-.912.645-.221.42-.331.926-.331 1.514 0 .561.082 1.01.248 1.375.166.364.415.532.774.532.138 0 .249-.056.304-.196.055-.14.083-.336.083-.645v-3.197zm0-1.29c0-.56-.194-.87-.58-.87v-.28l2.542-.14v1.851c.028 0 .138 0 .276-.028.166-.028.277-.028.332-.028.884 0 1.575.252 2.128.785.525.533.802 1.262.802 2.216 0 .392-.083.757-.222 1.093a2.871 2.871 0 01-.663.87c-.276.224-.58.392-.884.476-.304.085-.663.14-1.05.14l-.719-.055v1.15c0 .28.055.476.166.644.11.168.276.225.47.225v.28h-3.317v-.28c.194 0 .36-.085.498-.225.11-.14.193-.364.193-.645v-1.15l-.718.057c-.387 0-.746-.056-1.05-.14a2.494 2.494 0 01-.885-.477 2.34 2.34 0 01-.663-.87c-.166-.336-.221-.7-.221-1.093 0-.954.276-1.683.801-2.216.525-.533 1.244-.785 2.128-.785.138 0 .221 0 .332.028.083 0 .193.028.304.028v-.56zm9.949 4.683c.055-.14.11-.336.165-.56.028-.225.056-.449.056-.645 0-.28-.028-.533-.056-.813a2.125 2.125 0 00-.193-.674 1.108 1.108 0 00-.332-.448.749.749 0 00-.497-.197c-.387 0-.663.225-.829.645-.138.309-.194.673-.194 1.122 0 .505.083.954.221 1.346.194.561.526.813.94.813a.67.67 0 00.442-.168c.111-.112.194-.252.277-.42zm-2.985.842a1.974 1.974 0 01-.746-.898 3.035 3.035 0 01-.249-1.205c0-.898.332-1.627.967-2.16.608-.504 1.354-.757 2.266-.757.885 0 1.603.224 2.156.701.608.505.912 1.206.912 2.103 0 .87-.332 1.57-.967 2.076-.581.476-1.327.7-2.211.7-.415 0-.774-.055-1.161-.14-.359-.056-.691-.224-.967-.42zm8.291-1.038v.337c0 .112.028.224.083.28.111.14.221.196.415.196.469 0 .801-.224 1.077-.645.222-.364.304-.785.304-1.29 0-.56-.138-1.037-.442-1.402-.331-.42-.746-.617-1.299-.617h-.138v3.141zm.746-3.814c.47 0 .885.028 1.244.113.359.084.691.252.995.504.304.253.553.59.746.954.194.392.276.785.276 1.206 0 .84-.304 1.514-.939 2.019-.249.224-.608.364-1.078.476a5.102 5.102 0 01-1.161.113c-.138 0-.248 0-.414-.028-.138 0-.277-.029-.415-.057v1.15c0 .28.055.477.166.645.111.14.276.224.47.224V47h-3.316v-.28a.687.687 0 00.497-.225c.138-.14.193-.364.193-.645v-5.356c0-.56-.193-.87-.58-.87v-.28h3.316v.056zm7.323 3.898c0 .337 0 .561.028.645.055.309.221.477.497.477v.28h-3.067v-.28c.193 0 .331-.056.442-.196.083-.14.138-.449.138-.926v-3.225c-.414 0-.801.14-1.105.393-.304.28-.525.645-.664 1.122l-.221-.056.525-2.328a.323.323 0 00.194.14c.083.028.193.028.332.028h3.73c.166 0 .277 0 .415-.028a.534.534 0 00.249-.14l.497 2.328-.221.056c-.193-.505-.414-.87-.663-1.122-.277-.28-.663-.42-1.078-.42v3.252h-.028zm6.246-2.776c0-.589-.194-.87-.58-.87v-.28h3.04v.28c-.194 0-.332.057-.387.197-.083.14-.111.365-.111.673v.505h1.437v-.505c0-.308-.027-.533-.11-.673s-.194-.196-.387-.196v-.28h3.04v.28c-.387 0-.581.28-.581.87v3c0 .589.194.869.581.869v.28h-3.04v-.28c.193 0 .331-.056.387-.196.083-.14.11-.365.11-.645v-1.823h-1.437v1.823c0 .308.028.532.111.645.083.14.193.196.387.196v.28h-3.04v-.28c.386 0 .58-.28.58-.87v-3zm9.038 1.543a1.367 1.367 0 00-.443.448.866.866 0 00-.193.561c0 .168.055.337.166.477.11.14.249.196.414.196.387 0 .664-.252.802-.729.11-.337.166-.757.166-1.234-.222.028-.387.084-.525.112a1.456 1.456 0 00-.387.169zm.912-1.01v-.196c0-.113 0-.225-.028-.309a.835.835 0 00-.111-.224.969.969 0 00-.359-.224c-.138-.028-.276-.057-.47-.057a2 2 0 00-1.133.337c-.331.224-.58.56-.746.953h-.221l.221-1.935a.738.738 0 00.166.14c.055.029.11.057.193.057.056 0 .139 0 .221-.028.083-.028.139-.028.222-.056.525-.113.939-.197 1.188-.225.249-.028.497-.056.746-.056.332 0 .636.028.912.084.276.056.497.169.719.309.221.168.359.392.414.729.055.196.055.505.055.897v2.188c0 .28.028.504.083.617.083.196.249.308.498.336v.28h-2.184a1.287 1.287 0 01-.221-.308c-.055-.14-.11-.252-.138-.393-.166.253-.47.477-.857.645a2.97 2.97 0 01-1.077.225 1.76 1.76 0 01-1.078-.337 1.205 1.205 0 01-.498-1.01c0-.504.222-.953.636-1.29.332-.28.802-.504 1.41-.7.414-.14.912-.225 1.492-.309v-.14h-.055zm8.926.477l.774-.757c.414-.393.608-.673.608-.842a.212.212 0 00-.138-.196c-.083-.056-.194-.056-.304-.056v-.28h3.095v.28c-.36 0-.691.084-1.05.224a4.37 4.37 0 00-.968.617l-.193.168c.276.365.497.645.635.87.194.28.387.617.553.925l.387.785c.221.449.359.701.387.73.193.28.387.42.608.42v.28h-3.454v-.28c.138 0 .248-.028.331-.112a.404.404 0 00.138-.309c0-.252-.138-.617-.387-1.065-.193-.365-.442-.673-.663-.982l-.331.309v.953c0 .42.027.701.055.842.055.224.221.364.442.364v.28h-3.04v-.28c.387 0 .58-.28.58-.87v-3c0-.589-.193-.87-.58-.87v-.28h3.04v.28c-.193 0-.359.085-.415.281-.055.14-.082.309-.082.59v.98h-.028zm8.76-.786c.055-.14.083-.28.111-.364.027-.112.027-.196.027-.309a.404.404 0 00-.138-.308.581.581 0 00-.331-.084v-.28h2.155v.28c-.276 0-.497.168-.691.477-.083.112-.193.392-.359.869l-1.713 4.346c-.222.533-.443.926-.664 1.15-.304.309-.718.477-1.216.477a1.83 1.83 0 01-.663-.112 2.786 2.786 0 01-.636-.337l.581-1.402.221.084v.253c0 .14.055.28.193.392a.66.66 0 00.415.169c.276 0 .497-.14.691-.393.166-.253.248-.533.248-.841a2.41 2.41 0 00-.138-.701c-.055-.113-.138-.337-.304-.674l-1.382-2.86a6.66 6.66 0 00-.331-.617c-.166-.196-.359-.308-.581-.308v-.28h3.427v.28c-.138 0-.276.028-.359.056a.295.295 0 00-.138.252c0 .056.028.14.055.253.028.112.083.196.111.28l.801 2.02.608-1.768zm7.573 3.114c.138.196.249.308.304.364.138.14.276.196.415.196v.28h-3.261v-.28a.521.521 0 00.221-.056.155.155 0 00.083-.14c0-.084-.028-.14-.056-.197-.027-.056-.083-.14-.138-.252l-.691-1.094-.663.842c-.111.14-.193.224-.221.308a.687.687 0 00-.111.365c0 .056.028.112.056.168.055.056.138.084.248.084v.28h-2.045v-.28c.249-.056.498-.196.746-.42a8.17 8.17 0 00.553-.674l1.023-1.318-.968-1.514c-.221-.308-.331-.505-.386-.56-.194-.197-.387-.31-.581-.31v-.28h3.316v.28c-.11.029-.193.029-.276.085-.083.028-.11.112-.11.196 0 .056.027.112.055.197.027.056.11.196.193.336l.304.505.166-.196c.111-.14.221-.281.304-.421.138-.197.194-.365.194-.477 0-.084-.028-.14-.083-.168-.056-.028-.139-.028-.221-.028v-.28h1.989v.28c-.248.056-.469.14-.635.28-.111.084-.277.253-.47.533l-.857 1.094 1.603 2.271zm1.548-3.338c0-.589-.194-.87-.581-.87v-.28h3.04v.28c-.193 0-.331.057-.387.197-.082.14-.11.365-.11.673v.505h1.437v-.505c0-.308-.028-.533-.111-.673-.082-.14-.193-.196-.386-.196v-.28h3.04v.28c-.387 0-.581.28-.581.87v3c0 .589.194.869.581.869v.28h-3.04v-.28c.193 0 .331-.056.386-.196.083-.14.111-.365.111-.645v-1.823h-1.437v1.823c0 .308.028.532.11.645.083.14.194.196.387.196v.28h-3.04v-.28c.387 0 .581-.28.581-.87v-3zm10.28.645V41a.898.898 0 00-.248-.645c-.166-.168-.36-.28-.608-.28-.304 0-.553.168-.719.504-.138.253-.193.561-.193.954l1.768-.365zm-1.685 1.01c.055.505.221.897.469 1.206.277.364.664.532 1.133.532a1.91 1.91 0 001.106-.336 2.05 2.05 0 00.746-.925l.221.084-.663 2.047a.394.394 0 01-.111-.084c-.083-.056-.138-.056-.221-.056l-.221.027-.663.085c-.221.028-.442.056-.663.056-.415 0-.802-.056-1.189-.14-.387-.113-.718-.253-1.022-.477-.36-.253-.608-.59-.802-.954-.193-.364-.276-.785-.276-1.233 0-.87.332-1.543.967-2.048.581-.476 1.327-.7 2.211-.7.746 0 1.354.167 1.852.504.525.393.856.925.995 1.627l-3.869.785z"/></g><defs><clipPath id="clip0"><path fill="#fff" d="M0 0h206v47H0z"/></clipPath></defs></svg>