<svg width="27" height="27" viewBox="0 0 27 27" fill="none" xmlns="http://www.w3.org/2000/svg">
<g clip-path="url(#clip0)">
<path d="M5.3111 14.4909C4.62147 15.8465 5.40447 16.4945 7.19097 17.6015C8.70972 18.5397 10.8078 18.8829 12.1556 19.0201C11.6032 19.5511 14.1345 17.1166 6.84447 24.1287C5.29872 25.6104 7.78722 27.9875 9.33185 26.5374L13.5135 22.5042C15.1143 24.0444 16.6488 25.5204 17.6951 26.543C19.2408 27.9987 21.7282 25.6419 20.1993 24.1344C20.0846 24.0252 14.5327 18.6995 14.8713 19.0257C16.236 18.8885 18.3026 18.5251 19.8034 17.6071L19.8022 17.606C21.5887 16.4934 22.3717 15.8465 21.6922 14.4909C21.2816 13.7214 20.1746 13.0779 18.7008 14.1905C18.7008 14.1905 16.7107 15.7149 13.5011 15.7149C10.2903 15.7149 8.30135 14.1905 8.30135 14.1905C6.82872 13.0722 5.71722 13.7214 5.3111 14.4909Z" fill="#656565"/>
<path d="M13.4985 13.6597C17.4113 13.6597 20.6063 10.602 20.6063 6.83775C20.6063 3.05775 17.4113 0 13.4985 0C9.58465 0 6.38965 3.05775 6.38965 6.83775C6.38965 10.602 9.58465 13.6597 13.4985 13.6597ZM13.4985 3.46388C15.4211 3.46388 16.9894 4.9725 16.9894 6.83775C16.9894 8.68725 15.4211 10.1959 13.4985 10.1959C11.5759 10.1959 10.0076 8.68725 10.0076 6.83775C10.0065 4.97137 11.5748 3.46388 13.4985 3.46388Z" fill="#656565"/>
</g>
<defs>
<clipPath id="clip0">
<rect width="27" height="27" fill="white"/>
</clipPath>
</defs>
</svg>
