<svg width="24" height="25" fill="none" xmlns="http://www.w3.org/2000/svg"><path fill-rule="evenodd" clip-rule="evenodd" d="M11.853.365C8.634.365 8.23.38 6.966.437 5.704.495 4.843.694 4.09.987a5.825 5.825 0 00-2.1 1.367 5.818 5.818 0 00-1.367 2.1C.328 5.206.128 6.068.072 7.33.014 8.594 0 9 0 12.217c0 3.22.014 3.622.072 4.886.058 1.262.257 2.123.55 2.877.303.78.708 1.44 1.367 2.1a5.803 5.803 0 002.099 1.367c.754.293 1.616.493 2.877.55 1.264.058 1.668.073 4.887.073 3.219 0 3.621-.015 4.886-.072 1.262-.058 2.124-.258 2.878-.55a5.799 5.799 0 002.098-1.369 5.818 5.818 0 001.368-2.099c.291-.754.491-1.615.55-2.877.057-1.264.072-1.667.072-4.886 0-3.218-.015-3.622-.072-4.887-.059-1.261-.259-2.123-.55-2.876a5.818 5.818 0 00-1.368-2.1A5.793 5.793 0 0019.615.987c-.755-.293-1.617-.492-2.879-.55-1.264-.058-1.667-.072-4.887-.072h.004zm-1.064 2.14h1.063c3.164 0 3.54.011 4.79.068 1.155.053 1.782.246 2.2.408a3.67 3.67 0 011.362.887c.415.414.671.81.887 1.363.162.417.355 1.044.408 2.2.057 1.25.069 1.624.069 4.788 0 3.163-.012 3.538-.07 4.787-.052 1.156-.245 1.783-.407 2.2a3.665 3.665 0 01-.887 1.362 3.665 3.665 0 01-1.362.886c-.418.163-1.045.356-2.2.409-1.25.056-1.626.069-4.79.069-3.165 0-3.54-.013-4.79-.07-1.155-.053-1.782-.246-2.2-.408a3.67 3.67 0 01-1.363-.886 3.675 3.675 0 01-.887-1.363c-.162-.417-.356-1.044-.408-2.2-.057-1.25-.068-1.624-.068-4.79 0-3.165.011-3.538.068-4.787.053-1.156.246-1.783.408-2.2a3.67 3.67 0 01.887-1.364c.415-.415.81-.671 1.363-.887.418-.163 1.045-.355 2.2-.408 1.094-.05 1.518-.065 3.727-.067v.003zm7.389 1.974a1.422 1.422 0 100 2.845 1.422 1.422 0 000-2.845zm-6.326 1.649a6.087 6.087 0 10.001 12.173 6.087 6.087 0 000-12.173zm-.002 2.146a3.95 3.95 0 110 7.902 3.95 3.95 0 010-7.902z" fill="#AEAEAE"/></svg>