<svg width="24" height="14" fill="none" xmlns="http://www.w3.org/2000/svg"><path fill-rule="evenodd" clip-rule="evenodd" d="M13.014 13.514s.428-.047.647-.278c.201-.212.194-.611.194-.611s-.027-1.865.856-2.14c.87-.272 1.986 1.803 3.17 2.6.896.604 1.575.472 1.575.472l3.166-.043s1.656-.1.87-1.378c-.064-.105-.457-.946-2.353-2.674-1.986-1.808-1.719-1.516.672-4.644 1.456-1.905 2.038-3.068 1.856-3.565-.173-.476-1.244-.35-1.244-.35l-3.564.022s-.265-.035-.46.08c-.192.112-.316.375-.316.375s-.563 1.474-1.316 2.728c-1.587 2.645-2.221 2.785-2.48 2.62-.605-.383-.454-1.538-.454-2.358 0-2.564.396-3.633-.771-3.91-.387-.092-.672-.152-1.664-.162-1.271-.013-2.347.004-2.957.297-.406.194-.719.63-.528.654.236.03.769.141 1.052.52.365.487.352 1.582.352 1.582s.21 3.018-.49 3.393c-.48.257-1.139-.268-2.554-2.668C5.548 2.847 5 1.488 5 1.488s-.106-.254-.295-.39A1.46 1.46 0 004.16.882L.773.903s-.51.014-.696.231c-.166.193-.013.592-.013.592s2.652 6.09 5.655 9.159c2.753 2.813 5.879 2.629 5.879 2.629h1.416z" fill="#AEAEAE"/></svg>