<svg width="12" height="9" fill="none" xmlns="http://www.w3.org/2000/svg"><path d="M4.402 9L8.526.341 7.651 0 3.527 8.659 4.402 9zM2.64 4.86c1.578 0 2.638-1.085 2.638-2.412C5.277 1.023 4.084.06 2.64.06 1.06.06 0 1.133 0 2.448c0 1.45 1.18 2.411 2.639 2.411zm0-.78c-.943 0-1.7-.646-1.7-1.62 0-.889.677-1.607 1.698-1.607.968 0 1.723.645 1.723 1.607 0 .901-.676 1.62-1.723 1.62zm6.71 4.786c1.59 0 2.651-1.072 2.651-2.4C12 5.03 10.807 4.08 9.348 4.08 7.77 4.08 6.71 5.152 6.71 6.467c0 1.437 1.194 2.399 2.64 2.399zm.012-.767c-.954 0-1.723-.658-1.723-1.62 0-.889.69-1.608 1.723-1.608.955 0 1.724.646 1.724 1.608 0 .901-.69 1.62-1.724 1.62z" fill="#fff"/></svg>