<svg width="262" height="343" fill="none" xmlns="http://www.w3.org/2000/svg"><path d="M-46.686 354.317c54.604-40.951 96.938-75.374 127-103.268 30.677-27.895 52.765-53.118 66.262-75.671 14.111-22.553 21.167-44.809 21.167-66.768 0-24.927-7.976-44.512-23.928-58.756-15.951-14.838-36.198-22.256-60.74-22.256-24.54 0-46.014 9.199-64.42 27.597C.25 73-13.862 99.707-23.679 135.317c0 .594-1.227.89-3.68.89-5.523 0-7.977-1.187-7.363-3.561L.249 1.78C.25.593 1.476 0 3.93 0c1.84 0 3.375.593 4.602 1.78 1.84.594 2.454 1.187 1.84 1.781-.613 2.374-.92 5.341-.92 8.902 0 9.496 4.602 14.244 13.805 14.244 5.521 0 14.724-2.077 27.608-6.231 9.203-2.374 19.633-4.748 31.29-7.122 11.658-2.374 23.008-3.561 34.052-3.561 30.676 0 54.911 8.309 72.703 24.926 18.406 16.025 27.609 37.39 27.609 64.098 0 20.179-6.442 40.358-19.326 60.537-12.271 20.179-32.518 43.028-60.74 68.548-28.222 25.521-67.488 56.976-117.798 94.366-2.454 1.781-3.374 3.264-2.76 4.451 1.226 1.187 3.374 1.781 6.441 1.781 71.783 0 120.866-.89 147.248-2.671 26.995-2.374 46.015-7.418 57.058-15.134 11.044-8.309 19.02-22.849 23.928-43.622.613-1.187 2.454-1.484 5.522-.89 3.681 0 5.521.593 5.521 1.78l-12.884 87.244c0 2.374-.92 4.748-2.761 7.122-1.227 1.781-3.067 2.671-5.521 2.671h-280.69c-2.455 0-4.602-1.187-6.443-3.561-1.84-2.374-1.84-4.748 0-7.122z" fill="#FF3D00" fill-opacity=".2"/></svg>