<svg width="219" height="333" fill="none" xmlns="http://www.w3.org/2000/svg"><path d="M124.657 172.096c30.311 2.056 53.394 11.308 69.249 27.757 16.322 16.038 24.483 35.159 24.483 57.365 0 20.561-7.462 41.328-22.384 62.3-14.456 21.384-36.606 41.122-66.451 59.216-29.845 18.505-66.685 32.897-110.52 43.178-1.864.411-3.496-.617-4.895-3.084-.933-2.056-.467-3.29 1.399-3.701 56.891-14.393 97.694-35.776 122.41-64.151 24.715-28.374 37.072-57.365 37.072-86.973 0-21.794-6.295-40.299-18.886-55.514-12.59-15.627-32.642-23.44-60.156-23.44-13.057 0-24.948 1.234-35.673 3.701-1.4.411-2.565-.617-3.498-3.084-.933-2.467-.466-3.907 1.4-4.318 37.305-8.224 63.419-19.738 78.342-34.542 15.388-14.804 23.083-34.749 23.083-59.833 0-20.972-5.363-37.627-16.089-49.963-10.725-12.337-27.279-18.505-49.663-18.505-20.518 0-37.772 5.963-51.762 17.888C28.128 48.318 17.17 67.234 9.242 93.141c-.466.412-1.399.617-2.798.617-4.197 0-6.062-.822-5.596-2.467L26.73 1.234C27.662.41 28.595 0 29.527 0c1.4 0 2.798.411 4.197 1.234 1.4.41 1.865.822 1.4 1.233-.934 3.29-1.4 5.552-1.4 6.785 0 6.991 3.964 10.487 11.891 10.487 5.13 0 12.125-1.645 20.985-4.935 9.793-2.879 18.42-4.935 25.881-6.168 7.461-1.645 15.622-2.468 24.482-2.468 25.182 0 45 6.991 59.456 20.973 14.456 13.57 21.684 30.019 21.684 49.346 0 19.739-6.528 38.449-19.585 56.131-13.057 17.683-31.011 30.842-53.861 39.478z" fill="#FF3D00" fill-opacity=".2"/></svg>