<svg width="302" height="350" fill="none" xmlns="http://www.w3.org/2000/svg"><path d="M297.49 258.401c1.035 0 1.812 1.699 2.33 5.096 1.035 2.911 1.553 6.308 1.553 10.19 0 3.882-.518 7.522-1.553 10.918-.518 2.912-1.295 4.368-2.33 4.368-17.087-.971-40.128-1.941-69.123-2.912v118.646c0 5.338-2.072 8.735-6.214 10.191L197.3 426.544 192.64 428c-1.553 0-2.33-1.941-2.33-5.823V285.333c-32.62-.97-96.307-1.455-191.06-1.455-2.589 0-4.66-.971-6.213-2.912-1.554-1.941-1.295-3.882.776-5.823L216.717 1.456C217.752.486 219.305 0 221.377 0c1.553 0 3.106.485 4.66 1.456 1.553.485 2.33 1.456 2.33 2.911v255.49c12.944 0 35.985-.485 69.123-1.456zm-262.513 4.368c46.6 0 98.377-.486 155.333-1.456V62.599L31.093 257.673c-1.553 1.456-2.07 2.669-1.553 3.64 1.036.97 2.848 1.456 5.437 1.456z" fill="#FF3D00" fill-opacity=".2"/></svg>